<svg xmlns="http://www.w3.org/2000/svg" width="512" height="512" viewBox="0 0 512 512" version="1.1">
	<path d="M 231.467 5.979 C 173.101 12.186, 119.995 38.187, 78.989 80.633 C 49.841 110.804, 28.708 147.960, 16.497 190.500 C 10.484 211.450, 7.988 227.062, 7.305 248 C 5.694 297.390, 18.620 343.999, 46.303 388.621 C 86.131 452.819, 149.016 493.835, 223.500 504.195 C 237.665 506.165, 278.023 505.860, 292 503.676 C 318.076 499.603, 339.695 492.711, 364.500 480.562 C 407.069 459.714, 439.883 430.458, 464.654 391.270 C 474.261 376.072, 486.510 349.911, 492.406 332 C 502.444 301.507, 505.612 280.587, 504.674 251 C 502.209 173.297, 464.298 99.117, 404.500 54.993 C 369.422 29.109, 333.703 14.213, 291.564 7.894 C 276.725 5.669, 244.142 4.631, 231.467 5.979 M 229.500 29.164 C 171.860 35.664, 118.128 65.340, 81.327 111 C 61.604 135.471, 42.943 172.694, 35.048 203.312 C 26.541 236.305, 26.371 272.369, 34.567 305.301 C 40.607 329.576, 54.648 358.698, 62.191 362.599 C 64.956 364.028, 65.682 363.934, 73.971 361.064 C 79.143 359.273, 86.681 357.594, 92.153 357.012 C 97.294 356.466, 104.425 355.118, 108 354.017 C 116.453 351.414, 118.058 351.500, 127 355.031 C 135.573 358.416, 142.058 358.817, 150.957 356.511 C 157.555 354.801, 159.293 354.691, 175.117 354.974 C 185.879 355.166, 187.426 354.944, 196.117 351.963 C 218.911 344.146, 224.516 339.495, 230.592 323.351 C 233.547 315.501, 233.596 312.141, 230.885 303.365 C 228.258 294.857, 228.283 290.853, 231.009 283.932 C 240.064 260.942, 241.316 253.691, 238.073 243.014 C 236.233 236.955, 234.977 234.880, 230.192 229.990 C 222.717 222.352, 219.915 221.612, 201.955 222.537 C 189.215 223.194, 188.285 223.376, 188.742 225.122 C 189.012 226.155, 188.719 227, 188.091 227 C 186.818 227, 189.182 232.292, 191.776 235.250 C 193.094 236.754, 193.104 237, 191.846 237 C 191.041 237, 189.510 236.362, 188.444 235.583 C 186.980 234.512, 186.171 234.443, 185.138 235.300 C 184.080 236.179, 183.376 235.948, 182.024 234.279 C 179.883 231.633, 178 233, 178 237.200 C 178 238.740, 177.796 240, 177.547 240 C 176.198 240, 172 237.545, 172 236.756 C 172 235.261, 169.518 236.529, 169.407 238.082 C 169.161 241.497, 168.916 242, 167.500 242 C 166.675 242, 166 242.675, 166 243.500 C 166 244.325, 165.580 245, 165.067 245 C 164.554 245, 163.849 245.900, 163.500 247 C 163.151 248.100, 162.400 249, 161.831 249 C 161.171 249, 160.997 246.826, 161.352 243 C 161.667 239.601, 161.508 237, 160.985 237 C 160.478 237, 160.321 236.328, 160.636 235.506 C 160.952 234.684, 161.612 234.260, 162.105 234.565 C 162.597 234.869, 163 234.641, 163 234.059 C 163 232.459, 161.018 232.790, 160.362 234.500 C 160.045 235.325, 159.111 236, 158.286 236 C 157.378 236, 157.008 236.579, 157.349 237.468 C 157.659 238.275, 157.474 239.207, 156.937 239.539 C 156.401 239.870, 154.838 242.360, 153.464 245.071 C 152.090 247.782, 150.770 250, 150.531 250 C 150.291 250, 150.266 248.650, 150.475 247 C 150.684 245.350, 150.456 244, 149.969 244 C 149.483 244, 149.223 242.313, 149.392 240.250 C 149.631 237.340, 149.164 235.998, 147.308 234.259 L 144.916 232.017 142.151 234.846 C 140.630 236.401, 138.626 237.562, 137.697 237.426 C 136.768 237.290, 135.755 237.588, 135.445 238.089 C 134.534 239.563, 133 239.133, 133 237.404 C 133 235.410, 136.078 229.770, 137.750 228.700 C 139.089 227.844, 139.500 223.990, 138.250 224.015 C 136.734 224.046, 134.760 225.802, 135.285 226.652 C 135.583 227.134, 134.516 227.582, 132.913 227.647 C 131.311 227.713, 129.986 227.256, 129.970 226.633 C 129.953 226.010, 129.467 226.312, 128.889 227.305 C 128.094 228.671, 127.514 228.842, 126.508 228.007 C 125.544 227.207, 124.992 227.205, 124.500 228 C 124.021 228.774, 123.362 228.715, 122.257 227.799 C 121.397 227.084, 120.537 226.613, 120.346 226.750 C 119.332 227.482, 114 226.852, 114 226 C 114 225.450, 114.918 225, 116.040 225 C 118.800 225, 125.964 221.258, 126.656 219.455 C 126.963 218.655, 127.991 218, 128.940 218 C 131.439 218, 132.070 216.999, 130.923 214.856 C 130.123 213.362, 129.518 213.188, 127.981 214.010 C 126.500 214.803, 126.162 214.742, 126.542 213.752 C 126.919 212.768, 125.358 212.463, 120.020 212.479 C 110.841 212.506, 110.835 210.922, 120 207.496 C 126.518 205.060, 129 203.773, 129 202.831 C 129 202.374, 128.190 202, 127.200 202 C 126.210 202, 124.939 201.539, 124.377 200.977 C 123.814 200.414, 122.261 199.744, 120.927 199.488 C 119.592 199.233, 117.938 198.257, 117.250 197.321 C 116.563 196.384, 116 196.154, 116 196.809 C 116 198.494, 113.050 198.293, 112.386 196.563 C 111.572 194.442, 109.072 195.740, 104.220 200.805 C 101.866 203.263, 99.745 205.078, 99.507 204.840 C 99.268 204.602, 99.710 202.290, 100.489 199.703 C 101.267 197.117, 101.490 195, 100.984 195 C 100.477 195, 100.322 194.325, 100.638 193.500 C 100.955 192.675, 100.749 192, 100.180 192 C 99.611 192, 99.316 190.650, 99.525 189 C 99.925 185.843, 99.169 185.231, 97.247 187.153 C 96.474 187.926, 96.408 188.893, 97.046 190.086 C 97.791 191.478, 97.552 192.007, 95.947 192.517 C 94.256 193.053, 94.113 193.431, 95.133 194.660 C 96.118 195.848, 96.116 196.311, 95.119 196.926 C 94.431 197.352, 93.740 198.330, 93.585 199.100 C 93.429 199.870, 93.005 201.175, 92.641 202 C 92.277 202.825, 91.610 205.525, 91.159 208 L 90.338 212.500 88.669 207.068 C 87.751 204.081, 87 200.684, 87 199.518 C 87 198.353, 86.508 196.908, 85.907 196.307 C 85.117 195.517, 85.163 194.565, 86.072 192.866 C 86.763 191.574, 87.444 188.938, 87.584 187.008 C 87.825 183.695, 87.782 183.642, 86.800 186.043 C 86.199 187.512, 84.438 189.033, 82.630 189.645 C 80.908 190.228, 78.713 191.044, 77.750 191.459 C 76.431 192.028, 76 191.744, 76 190.307 C 76 189.258, 76.535 187.865, 77.190 187.210 C 78.906 185.494, 79.056 183, 77.443 183 C 76.545 183, 76.292 182.388, 76.719 181.250 C 77.280 179.753, 77.144 179.687, 75.776 180.799 C 74.699 181.674, 73.966 181.755, 73.528 181.046 C 73.092 180.340, 72.274 180.318, 71.039 180.979 C 69.662 181.716, 69.053 181.580, 68.615 180.439 C 68.191 179.334, 67.543 179.168, 66.265 179.837 C 64.191 180.922, 58 180.187, 58 178.855 C 58 178.350, 58.787 177.694, 59.750 177.396 C 60.712 177.099, 62.175 176.423, 63 175.894 C 63.825 175.365, 66.133 174.225, 68.129 173.362 C 71.009 172.116, 71.647 171.368, 71.221 169.738 C 70.763 167.986, 71.032 167.775, 73.055 168.304 C 74.535 168.691, 76.061 168.350, 77.114 167.397 C 78.237 166.381, 79.022 166.226, 79.460 166.935 C 80.779 169.070, 81.969 167.920, 81.713 164.759 C 81.539 162.621, 80.863 161.405, 79.725 161.186 C 78.776 161.003, 78 161.336, 78 161.927 C 78 163.558, 75.017 163.208, 74.362 161.500 C 74.045 160.675, 72.695 160, 71.362 160 C 70.028 160, 68.713 159.417, 68.440 158.704 C 68.115 157.857, 66.693 157.554, 64.335 157.829 C 57.438 158.635, 64.021 153.846, 72.864 151.625 C 75.329 151.006, 77.522 149.964, 77.737 149.309 C 78.279 147.657, 72.331 144.760, 69.950 145.516 C 67.512 146.290, 67.427 144.829, 69.785 142.694 C 71.046 141.553, 73.174 141.141, 77.035 141.289 C 81.577 141.464, 82.796 141.135, 84.250 139.342 C 86.392 136.702, 86.444 136, 84.500 136 C 82.759 136, 82.554 134.846, 84.033 133.367 C 85.523 131.877, 84.114 129, 81.893 129 C 79.521 129, 79.517 128.434, 81.872 125.907 C 83.247 124.431, 84.441 124.073, 86.372 124.557 C 87.817 124.920, 89 125.794, 89 126.500 C 89 127.206, 90.021 128.040, 91.270 128.353 C 92.518 128.666, 94.581 129.892, 95.853 131.078 C 97.401 132.520, 98.499 132.901, 99.171 132.229 C 99.842 131.558, 99.815 131.003, 99.087 130.554 C 98.489 130.184, 98 128.700, 98 127.255 C 98 125.811, 96.988 123.526, 95.750 122.177 L 93.500 119.726 96.274 120.229 C 97.799 120.505, 99.289 120.342, 99.583 119.866 C 100.641 118.154, 101.683 119.077, 103.971 123.750 C 107.469 130.896, 107.982 131.366, 109.985 129.275 C 111.256 127.947, 111.423 127.078, 110.648 125.824 C 109.952 124.699, 109.938 123.384, 110.604 121.824 C 111.150 120.546, 111.526 115.546, 111.439 110.714 C 111.257 100.499, 112.109 100.038, 116.310 108.079 C 117.867 111.060, 119.778 114.202, 120.557 115.063 C 121.681 116.305, 121.718 116.883, 120.736 117.868 C 119.754 118.853, 120.003 119.488, 121.951 120.960 C 123.978 122.491, 124.185 123.072, 123.152 124.317 C 122.307 125.334, 122.242 126.032, 122.951 126.470 C 123.528 126.826, 124 126.609, 124 125.988 C 124 124.344, 126.603 122, 128.429 122 C 129.293 122, 130 122.450, 130 123 C 130 123.550, 129.550 124, 129 124 C 128.450 124, 128 124.435, 128 124.968 C 128 126.272, 132.284 124.647, 132.782 123.154 C 132.993 122.520, 132.679 122, 132.083 122 C 131.488 122, 131 121.387, 131 120.639 C 131 119.714, 131.881 119.418, 133.750 119.717 C 135.284 119.962, 136.058 119.790, 135.500 119.328 C 134.950 118.873, 134.425 118.050, 134.333 117.500 C 134.242 116.950, 134.055 116.050, 133.919 115.500 C 133.783 114.950, 133.999 113.150, 134.399 111.500 C 134.798 109.850, 135.347 107.422, 135.618 106.105 C 136.239 103.089, 137.322 104.303, 138.872 109.750 C 139.536 112.088, 140.512 114, 141.040 114 C 141.568 114, 142 115.350, 142 117 C 142 120.586, 142.600 120.664, 146.380 117.573 C 149.223 115.248, 149.232 115.208, 147.061 114.519 C 145.099 113.897, 145.036 113.694, 146.476 112.641 C 148.205 111.377, 148.383 109.667, 147.402 103.750 C 146.587 98.830, 148.157 98.962, 150.380 104 C 151.351 106.200, 152.506 108, 152.947 108 C 153.389 108, 154.020 109.350, 154.350 111 C 155.015 114.326, 156.700 114.949, 157.731 112.250 C 158.843 109.336, 161.928 106.520, 162.873 107.556 C 163.348 108.075, 164.012 109.980, 164.350 111.788 C 164.799 114.190, 164.566 115.229, 163.483 115.645 C 160.868 116.648, 161.898 118.040, 165.076 117.797 C 168.247 117.556, 170.366 116, 167.524 116 C 166.196 116, 166.122 115.624, 167.082 113.750 C 168.442 111.094, 176.066 103, 177.208 103 C 178.587 103, 178.068 105.817, 176.017 109.470 C 174.926 111.411, 174.507 113, 175.084 113 C 175.684 113, 175.859 113.869, 175.492 115.025 C 174.422 118.397, 177.051 116.904, 180.821 112 C 185.217 106.280, 184.923 106.590, 185.455 107.122 C 185.705 107.372, 185.296 109.359, 184.545 111.538 C 183.595 114.295, 183.494 115.880, 184.212 116.750 C 184.948 117.640, 184.864 118, 183.922 118 C 182.935 118, 182.888 118.288, 183.736 119.136 C 184.583 119.983, 184.528 120.614, 183.519 121.624 C 181.712 123.431, 183.048 128.385, 185.468 128.851 C 186.794 129.107, 187.124 128.766, 186.677 127.601 C 186.279 126.564, 186.600 126, 187.590 126 C 188.431 126, 188.840 125.550, 188.500 125 C 188.160 124.450, 188.670 124, 189.632 124 C 191.277 124, 191.275 123.921, 189.589 122.689 C 187.963 121.500, 188.178 121.263, 191.898 120.149 C 194.154 119.473, 195.997 118.600, 195.994 118.210 C 195.990 117.819, 194.579 116.698, 192.858 115.719 C 189.147 113.606, 189.652 112.739, 194.749 112.474 C 199.920 112.205, 200 112.176, 200 110.611 C 200 109.847, 200.739 109.285, 201.642 109.361 C 202.546 109.438, 203.464 108.995, 203.683 108.377 C 204.296 106.652, 200.572 106.109, 198.503 107.621 C 196.307 109.227, 194 107.821, 194 104.878 C 194 103.796, 193.297 103, 192.342 103 C 190.149 103, 179.055 97.731, 179.024 96.675 C 179.011 96.221, 180.238 95.931, 181.750 96.031 C 183.262 96.130, 184.725 96.113, 185 95.992 C 186.740 95.226, 191 95.281, 191 96.068 C 191 96.590, 191.863 96.478, 192.919 95.819 C 194.430 94.875, 195.174 94.899, 196.419 95.933 C 197.750 97.037, 198 96.988, 198 95.622 C 198 94.730, 198.450 94, 199 94 C 199.550 94, 200 94.450, 200 95 C 200 95.550, 200.900 96, 202 96 C 203.100 96, 204 95.464, 204 94.809 C 204 94.154, 204.661 94.491, 205.468 95.559 C 206.797 97.315, 206.939 97.333, 206.968 95.750 C 206.986 94.787, 207.477 94, 208.059 94 C 210.636 94, 207.756 92.297, 205.049 92.220 C 200.807 92.100, 199.756 91.182, 200.379 88.141 C 200.677 86.688, 200.676 86.063, 200.377 86.750 C 200.078 87.438, 199.295 88, 198.637 88 C 197.315 88, 194.586 84.652, 194.923 83.443 C 195.040 83.021, 193.755 82.096, 192.068 81.387 C 190.381 80.677, 189 79.696, 189 79.207 C 189 77.878, 198.376 77.990, 199.203 79.328 C 199.737 80.192, 200.226 80.174, 201.145 79.255 C 202.115 78.285, 202.781 78.391, 204.319 79.764 C 206.189 81.432, 206.239 81.415, 205.592 79.334 C 205.222 78.143, 205.387 76.879, 205.959 76.525 C 207.461 75.597, 207.239 74, 205.607 74 C 203.709 74, 202.891 71.509, 204.320 70.080 C 205.107 69.293, 205.148 68.688, 204.447 68.208 C 203.455 67.530, 199 60.362, 199 59.443 C 199 57.382, 211.674 65.530, 212.528 68.140 C 213.580 71.354, 221 71.140, 221 67.895 C 221 66.818, 221.647 65.689, 222.437 65.386 C 223.227 65.083, 223.657 64.269, 223.391 63.577 C 223.126 62.886, 223.599 61.748, 224.442 61.048 C 225.756 59.958, 226.262 60.444, 227.982 64.458 C 229.628 68.298, 230.395 69.083, 232.245 68.820 C 233.727 68.610, 234.500 67.814, 234.500 66.500 C 234.500 65.400, 234.864 63.938, 235.309 63.250 C 235.793 62.502, 235.650 62, 234.952 62 C 234.279 62, 234.054 61.302, 234.420 60.349 C 234.806 59.343, 234.262 57.961, 233.027 56.810 C 231.912 55.772, 231 54.253, 231 53.435 C 231 52.123, 231.334 52.121, 233.852 53.423 C 238.154 55.648, 243.498 62.074, 241.879 63.075 C 240.859 63.705, 240.986 64.327, 242.466 65.963 C 243.753 67.384, 244.678 67.722, 245.376 67.024 C 245.939 66.461, 247.210 66, 248.200 66 C 249.190 66, 250 65.550, 250 65 C 250 64.450, 249.550 64, 249 64 C 248.450 64, 248 63.550, 248 63 C 248 62.450, 248.563 61.999, 249.250 61.998 C 249.940 61.997, 250.600 60.574, 250.723 58.823 C 250.846 57.079, 251.342 55.392, 251.826 55.075 C 252.309 54.759, 253.502 52.025, 254.475 49 C 256.810 41.747, 257.613 41.069, 258.415 45.675 C 258.782 47.779, 259.479 50.625, 259.965 52 C 260.451 53.375, 261.128 56.188, 261.470 58.250 C 261.856 60.580, 262.641 62, 263.545 62 C 264.345 62, 265 62.724, 265 63.608 C 265 64.851, 264.375 65.072, 262.250 64.578 C 260.738 64.227, 259.983 64.290, 260.573 64.720 C 262.457 66.090, 262.927 68.816, 261.485 70.012 C 260.374 70.934, 260.334 71.562, 261.286 73.087 C 262.780 75.478, 267.571 75.128, 267.361 72.644 C 267.284 71.736, 267.956 70.993, 268.861 70.985 C 269.995 70.974, 270.131 70.735, 269.303 70.208 C 267.832 69.273, 268.827 67.621, 271.500 66.561 C 272.775 66.055, 273.047 65.598, 272.250 65.300 C 270.116 64.503, 270.875 61.998, 273.560 60.977 C 274.968 60.442, 275.842 59.554, 275.502 59.004 C 275.162 58.454, 275.585 57.003, 276.442 55.779 C 277.299 54.556, 278.007 52.418, 278.015 51.027 C 278.024 49.637, 278.448 47.840, 278.958 47.034 C 280.388 44.772, 282.138 50.268, 282.449 58 C 282.670 63.504, 282.401 64.749, 280.692 66.127 C 278.674 67.755, 278.674 67.755, 280.837 68.913 C 283.525 70.352, 283.644 72, 281.059 72 C 278.808 72, 277.498 73.572, 278.984 74.490 C 280.496 75.425, 280.212 77, 278.531 77 C 277.640 77, 277.288 77.587, 277.635 78.492 C 277.960 79.339, 277.523 80.246, 276.622 80.592 C 275.425 81.051, 275.278 81.650, 276.021 83.039 C 276.671 84.254, 276.665 85.089, 276.003 85.498 C 274.700 86.303, 274.698 90, 276 90 C 276.550 90, 277 89.550, 277 89 C 277 88.450, 277.675 88, 278.500 88 C 279.325 88, 280 87.550, 280 87 C 280 86.450, 279.612 86, 279.138 86 C 278.663 86, 278.392 84.931, 278.536 83.624 C 278.845 80.809, 280.760 76.975, 281.780 77.128 C 283.657 77.411, 284.365 76.884, 283.147 76.112 C 282.089 75.442, 282.043 74.788, 282.937 73.118 C 283.830 71.449, 284.650 71.125, 286.689 71.637 C 288.521 72.097, 289.087 71.950, 288.590 71.146 C 288.201 70.516, 288.344 70, 288.910 70 C 289.475 70, 289.691 69.360, 289.391 68.577 C 288.792 67.014, 292.451 64.543, 293.973 65.483 C 294.485 65.800, 297.031 64.020, 299.631 61.529 C 302.231 59.038, 304.727 57, 305.179 57 C 306.468 57, 306.142 59.352, 304.535 61.646 C 303.730 62.796, 303.355 64.021, 303.702 64.369 C 304.049 64.716, 303.557 65, 302.608 65 C 301.659 65, 301.158 65.446, 301.495 65.992 C 302.345 67.367, 296.308 74.647, 292.225 77.170 C 290.056 78.511, 289.198 79.598, 289.820 80.220 C 290.777 81.177, 296 78.538, 296 77.098 C 296 76.728, 297.393 76.319, 299.095 76.190 C 300.796 76.060, 302.824 75.319, 303.600 74.542 C 305.250 72.893, 308.912 71.578, 309.689 72.356 C 309.986 72.652, 309.240 74.493, 308.033 76.447 C 306.825 78.401, 306.274 80, 306.807 80 C 307.341 80, 307.715 80.787, 307.639 81.750 C 307.533 83.085, 308.329 83.534, 311 83.645 C 314.389 83.785, 322.615 86.718, 321.828 87.506 C 321.614 87.720, 318.978 88.165, 315.969 88.496 C 312.554 88.872, 310.014 89.736, 309.207 90.799 C 308.496 91.734, 307.671 92.350, 307.374 92.167 C 307.076 91.983, 306.607 92.059, 306.331 92.336 C 305.738 92.929, 309.207 94.893, 312.315 95.724 C 313.517 96.046, 317.537 96.352, 321.249 96.405 C 324.961 96.457, 327.998 96.742, 327.999 97.039 C 328.002 98.412, 317.328 102.954, 315.367 102.415 C 314.194 102.092, 311.796 102.571, 310.040 103.480 L 306.845 105.131 308.923 106.933 C 311.047 108.775, 311.713 112.441, 310.104 113.436 C 309.611 113.740, 307.924 113.320, 306.354 112.501 C 304.784 111.682, 302.900 111.010, 302.167 111.006 C 300.163 110.997, 301.377 113.446, 303.583 113.862 C 304.637 114.061, 307.255 115.508, 309.401 117.078 C 311.546 118.647, 313.684 119.696, 314.151 119.407 C 314.618 119.118, 315 119.367, 315 119.960 C 315 120.611, 315.991 120.789, 317.500 120.411 C 319.152 119.996, 320 120.200, 320 121.014 C 320 121.944, 320.335 121.967, 321.373 121.105 C 322.129 120.478, 323.551 120.274, 324.534 120.651 C 326.053 121.234, 326.206 120.975, 325.554 118.919 C 325.131 117.588, 324.722 114.475, 324.643 112 C 324.481 106.908, 326.575 105.763, 328.605 109.834 C 329.245 111.118, 330.270 112.670, 330.884 113.284 C 331.498 113.898, 332 115.162, 332 116.093 C 332 119.495, 334.941 119.077, 336.452 115.460 C 337.692 112.494, 337.706 111.418, 336.550 108.142 C 334.490 102.304, 336.186 100.608, 339.781 104.910 C 344.701 110.798, 347.195 109.986, 348.671 102.018 C 348.924 100.653, 349.309 99.357, 349.528 99.139 C 350.141 98.526, 351.805 103.083, 352.473 107.205 C 352.889 109.773, 353.491 110.749, 354.436 110.386 C 355.185 110.099, 356.138 110.414, 356.553 111.086 C 357.037 111.868, 356.893 112.052, 356.155 111.595 C 355.520 111.203, 355 111.385, 355 112 C 355 112.615, 354.581 112.859, 354.069 112.543 C 353.557 112.226, 352.875 112.394, 352.553 112.915 C 351.423 114.742, 353.969 115.066, 356.489 113.415 C 358.485 112.107, 358.789 111.450, 357.895 110.374 C 356.504 108.697, 358.075 106.427, 361.340 105.395 C 362.528 105.020, 365.424 103.139, 367.775 101.215 C 374.877 95.405, 374.327 99.347, 366.845 107.891 C 362.426 112.937, 362.270 113.539, 365 115 C 366.546 115.828, 367 115.760, 367 114.704 C 367 113.953, 368.125 112.736, 369.500 112 C 370.875 111.264, 372 110.063, 372 109.331 C 372 108.599, 372.406 108, 372.902 108 C 373.398 108, 374.321 106.537, 374.954 104.750 C 375.981 101.844, 376.213 101.693, 377.144 103.327 C 377.895 104.645, 377.785 106.372, 376.749 109.519 C 375.495 113.330, 375.498 114.069, 376.773 115.344 C 378.053 116.625, 377.965 116.949, 376.052 117.972 C 374.303 118.908, 374.106 119.423, 375.058 120.570 C 375.711 121.356, 375.875 122, 375.422 122 C 374.970 122, 375.108 122.508, 375.730 123.130 C 377.474 124.874, 382 125.078, 382 123.412 C 382 122.635, 381.512 122, 380.917 122 C 379.018 122, 380.595 119.506, 382.588 119.356 C 383.639 119.277, 384.893 119.165, 385.372 119.106 C 385.852 119.048, 385.644 118.276, 384.910 117.392 C 383.791 116.044, 383.812 115.599, 385.038 114.642 C 387.658 112.596, 389.301 108.253, 388.662 105.060 C 388.323 103.366, 388.474 102, 388.999 102 C 390.647 102, 393.236 108.201, 393.529 112.847 C 393.706 115.667, 394.398 117.643, 395.404 118.206 C 396.776 118.974, 396.615 119.429, 394.249 121.476 C 391.816 123.580, 391.701 123.932, 393.250 124.534 C 395.632 125.460, 395.465 128.645, 393 129.290 C 391.900 129.577, 391 130.277, 391 130.844 C 391 131.412, 391.900 131.808, 393 131.725 C 394.100 131.642, 395 131.220, 395 130.787 C 395 130.354, 395.666 130, 396.481 130 C 397.295 130, 398.244 128.875, 398.589 127.500 C 398.934 126.125, 399.669 125, 400.222 125 C 400.775 125, 401.034 123.684, 400.798 122.076 C 400.466 119.814, 400.854 118.932, 402.517 118.174 C 403.929 117.531, 405.276 115.251, 406.451 111.516 C 408.441 105.190, 410.178 105.262, 410.380 111.680 C 410.446 113.781, 411.175 116.054, 412 116.731 C 413.195 117.712, 413.239 118.134, 412.216 118.811 C 411.510 119.278, 411.203 120.366, 411.534 121.229 C 411.865 122.092, 411.656 123.095, 411.068 123.458 C 409.409 124.483, 409.809 125.996, 411.750 126.041 C 413.056 126.071, 412.635 126.821, 410.091 128.996 C 407.390 131.305, 406.921 132.200, 407.832 133.298 C 408.465 134.060, 408.663 135.004, 408.272 135.395 C 407.881 135.786, 408.327 135.812, 409.262 135.453 C 410.639 134.925, 410.754 134.409, 409.865 132.748 C 408.931 131.003, 409.020 130.794, 410.458 131.345 C 411.415 131.713, 412.802 131.341, 413.655 130.488 C 414.483 129.659, 415.575 129.237, 416.081 129.550 C 416.586 129.862, 417.014 129.529, 417.031 128.809 C 417.048 128.089, 419.004 126.037, 421.379 124.250 C 428.924 118.570, 431.830 120.779, 425.452 127.347 L 421.904 131 424.511 131 C 426.330 131, 426.891 131.378, 426.367 132.250 C 425.787 133.216, 425.974 133.211, 427.191 132.224 C 428.479 131.182, 428.865 131.205, 429.305 132.352 C 429.738 133.480, 430.861 133.570, 435.024 132.814 C 437.874 132.296, 440.468 132.135, 440.790 132.457 C 441.111 132.778, 439.378 134.855, 436.937 137.072 C 434.497 139.289, 432.632 141.754, 432.793 142.550 C 433.301 145.052, 438.172 149.186, 443.433 151.580 L 448.500 153.885 445 154.011 C 443.075 154.081, 440.270 154.300, 438.766 154.499 C 437.262 154.698, 435.743 154.394, 435.391 153.823 C 434.974 153.148, 434.471 153.237, 433.951 154.079 C 433.327 155.089, 432.837 155.110, 431.709 154.173 C 430.570 153.228, 429.997 153.299, 428.991 154.510 C 428.291 155.354, 426.945 155.800, 426 155.500 C 424 154.865, 421.314 157.458, 422.934 158.459 C 423.502 158.810, 425.585 158.793, 427.563 158.422 C 429.541 158.051, 432.136 158.208, 433.330 158.772 C 438.788 161.348, 442.822 162.906, 446.708 163.937 C 449.022 164.552, 451.148 165.431, 451.433 165.891 C 452.199 167.132, 441.857 168.127, 440.438 166.949 C 439.597 166.250, 439.049 166.430, 438.622 167.543 C 438.232 168.560, 437.335 168.924, 436.146 168.546 C 435.068 168.204, 433.750 168.596, 433.019 169.477 C 432.324 170.315, 431.135 171, 430.378 171 C 428.659 171, 428.587 173.179, 430.250 174.875 C 431.254 175.899, 430.910 176.645, 428.500 178.669 C 426.550 180.306, 425.940 181.360, 426.756 181.679 C 427.447 181.950, 427.727 182.633, 427.378 183.197 C 427.029 183.762, 427.335 184.589, 428.058 185.036 C 429.094 185.676, 429.115 186.156, 428.157 187.310 C 427.190 188.476, 427.376 189.929, 429.069 194.456 C 430.239 197.581, 430.931 200.402, 430.609 200.725 C 429.746 201.587, 418.560 190.756, 418.528 189.027 C 418.512 188.217, 417.255 187.115, 415.733 186.578 C 413.389 185.751, 412.732 185.938, 411.427 187.801 C 409.449 190.625, 408.643 190.570, 407 187.500 C 406.224 186.051, 404.788 185.006, 403.581 185.015 C 402.209 185.025, 401.916 185.295, 402.721 185.806 C 403.451 186.270, 403.802 188.146, 403.593 190.473 C 403.401 192.612, 403.631 195.714, 404.105 197.365 C 405.283 201.474, 404.402 201.913, 401.424 198.702 C 400.046 197.216, 398.487 196, 397.960 196 C 397.432 196, 397 195.300, 397 194.443 C 397 191.890, 391.260 195.829, 390.485 198.914 C 389.438 203.087, 388.075 199.291, 387.687 191.118 C 387.501 187.212, 387.064 183.730, 386.715 183.382 C 386.367 183.034, 384.898 184.157, 383.450 185.877 C 382.002 187.598, 380.389 188.740, 379.865 188.417 C 378.640 187.659, 375.848 189.945, 376.570 191.113 C 376.871 191.601, 376.304 192.007, 375.309 192.015 C 373.914 192.027, 373.810 192.227, 374.855 192.890 C 375.967 193.594, 375.883 194.249, 374.388 196.530 C 372.976 198.686, 372.896 199.192, 374.033 198.781 C 374.840 198.489, 375.381 197.631, 375.236 196.875 C 375.078 196.054, 375.555 196.246, 376.419 197.350 C 377.215 198.368, 378.287 198.941, 378.800 198.624 C 379.313 198.307, 380.497 198.892, 381.431 199.924 C 383.159 201.833, 382.063 203.775, 379.984 202.490 C 377.681 201.067, 374 200.977, 374 202.344 C 374 203.155, 374.930 203.666, 376.250 203.579 C 378.417 203.436, 395.205 209.861, 396.747 211.424 C 397.161 211.843, 395.925 212.099, 394 211.992 C 392.075 211.885, 390.275 211.866, 390 211.950 C 389.725 212.033, 386.923 212.218, 383.774 212.360 C 380.625 212.502, 377.767 212.899, 377.424 213.243 C 376.375 214.292, 378.111 216.171, 379.601 215.600 C 380.371 215.304, 381 215.415, 381 215.846 C 381 216.818, 387.537 220, 389.534 220 C 390.340 220, 391 220.450, 391 221 C 391 221.550, 389.875 222, 388.500 222 C 387.125 222, 386 222.375, 386 222.833 C 386 223.292, 384.425 223.667, 382.500 223.667 C 380.575 223.667, 379 223.306, 379 222.866 C 379 222.425, 378.040 222.420, 376.866 222.854 C 375.394 223.399, 374.655 224.628, 374.483 226.822 C 374.345 228.570, 374.637 230, 375.132 230 C 375.627 230, 375.963 231.238, 375.880 232.750 C 375.796 234.263, 376.194 236.649, 376.764 238.053 L 377.800 240.605 373.446 238.553 C 371.051 237.424, 369.071 236.064, 369.046 235.532 C 368.993 234.421, 364.084 230, 362.903 230 C 361.402 230, 361.063 231.733, 361.955 234.844 C 362.449 236.565, 362.548 238.161, 362.176 238.391 C 361.804 238.621, 361.512 241.102, 361.526 243.905 C 361.553 249.428, 360.514 250.482, 358.990 246.474 C 358.462 245.085, 357.322 243.677, 356.458 243.345 C 355.563 243.002, 355.133 242.096, 355.460 241.244 C 355.776 240.420, 355.522 239.129, 354.895 238.373 C 353.676 236.904, 349.525 236.423, 350.409 237.853 C 351.315 239.319, 348.620 242.020, 345.726 242.545 C 343.719 242.909, 342.774 242.575, 342.298 241.334 C 341.925 240.363, 342.155 239.448, 342.826 239.225 C 343.479 239.007, 343.761 238.423, 343.454 237.926 C 343.147 237.429, 343.594 237.291, 344.448 237.618 C 346.289 238.325, 346.497 236.897, 344.800 235.200 C 343.167 233.567, 342 233.692, 342 235.500 C 342 236.325, 341.438 237.001, 340.750 237.003 C 340.063 237.004, 336.951 238.542, 333.835 240.421 C 330.720 242.300, 327.950 243.617, 327.682 243.348 C 327.413 243.079, 328.387 240.444, 329.846 237.492 C 331.850 233.438, 333.051 232.108, 334.750 232.062 C 336.761 232.007, 338.102 230.101, 336.250 229.931 C 335.837 229.893, 334.318 229.705, 332.873 229.512 C 330.895 229.249, 329.983 229.743, 329.176 231.514 C 328.289 233.459, 327.360 233.861, 323.802 233.842 C 321.436 233.829, 318.262 234.137, 316.750 234.526 C 313.508 235.360, 313.104 233.896, 315.826 231.174 C 316.831 230.169, 317.939 228.602, 318.289 227.690 C 318.686 226.654, 319.594 226.243, 320.712 226.592 C 322.362 227.108, 322.358 227.060, 320.666 225.979 C 319.388 225.162, 319.010 224.096, 319.420 222.465 C 319.743 221.176, 319.556 219.843, 319.004 219.502 C 318.452 219.161, 318 219.759, 318 220.832 C 318 222.660, 317.079 222.805, 303.250 223.158 C 289.792 223.500, 288.109 223.751, 284.039 226.017 C 275.955 230.517, 271.426 240.702, 271.596 254 C 271.672 259.978, 272.563 264.139, 275.983 274.500 C 280.752 288.949, 280.762 288.424, 275.484 300.937 C 271.129 311.264, 272.376 321.554, 279.402 333.258 C 283.741 340.486, 288.483 343.696, 305.582 350.983 C 319.596 356.956, 320.954 357.337, 328 357.280 C 332.125 357.246, 337.750 356.499, 340.500 355.620 C 347.259 353.459, 353.519 353.594, 360.593 356.053 C 369.231 359.055, 375.150 358.769, 383.288 354.956 C 389.421 352.083, 390.474 351.877, 394.203 352.824 C 396.951 353.521, 400.063 353.551, 403.516 352.912 C 407.375 352.199, 410.285 352.323, 414.888 353.397 C 418.912 354.335, 423.656 354.645, 428.457 354.282 C 434.891 353.795, 436.872 354.091, 443.885 356.582 L 451.932 359.441 454.716 357.424 C 456.440 356.174, 459.785 350.839, 463.500 343.415 C 488.285 293.883, 489.676 234.089, 467.433 174.327 C 456.577 145.161, 438.460 116.712, 417.022 95.168 C 381.401 59.373, 335.312 36.428, 285.216 29.549 C 272.810 27.846, 243.014 27.640, 229.500 29.164 M 243.630 71.250 C 242.772 74.451, 242.858 75.206, 244 74.500 C 244.550 74.160, 245 74.359, 245 74.941 C 245 75.523, 245.450 76, 246 76 C 246.550 76, 247 75.325, 247 74.500 C 247 73.675, 246.576 73, 246.057 73 C 245.539 73, 245.288 72.100, 245.500 71 C 246.030 68.245, 244.376 68.467, 243.630 71.250 M 223.667 70.667 C 223.300 71.033, 223 71.798, 223 72.367 C 223 72.993, 223.466 72.934, 224.183 72.217 C 224.834 71.566, 225.134 70.801, 224.850 70.517 C 224.566 70.233, 224.033 70.300, 223.667 70.667 M 215.347 73.537 C 213.566 74.886, 213.572 74.940, 215.500 75.047 C 216.600 75.108, 216.935 75.386, 216.244 75.664 C 215.553 75.943, 215.260 76.612, 215.593 77.151 C 216.203 78.138, 220 75.382, 220 73.952 C 220 72.441, 217.132 72.185, 215.347 73.537 M 228.209 73.607 C 228.438 74.666, 229.254 75.328, 230.059 75.109 C 230.852 74.893, 232.287 74.753, 233.250 74.796 C 234.213 74.840, 235 74.454, 235 73.938 C 235 73.422, 234.438 72.994, 233.750 72.986 C 233.063 72.979, 231.442 72.689, 230.149 72.343 C 228.213 71.825, 227.871 72.048, 228.209 73.607 M 254.508 77.976 C 254.118 79.204, 253.229 79.575, 251.478 79.241 C 249.267 78.818, 249 79.105, 249 81.899 C 249 84.764, 249.257 85.012, 252 84.803 C 254.249 84.632, 254.872 84.172, 254.489 82.966 C 254.111 81.773, 254.950 81.118, 257.739 80.429 C 262.402 79.277, 262.736 76.841, 258.280 76.491 C 255.953 76.308, 254.906 76.720, 254.508 77.976 M 210.523 83.037 C 210.850 83.567, 211.766 84, 212.559 84 C 213.352 84, 214 84.623, 214 85.383 C 214 86.144, 215.103 86.978, 216.451 87.235 C 219.134 87.748, 219.342 86.556, 217 84.083 C 215.383 82.376, 209.530 81.431, 210.523 83.037 M 229.532 85.901 C 228.842 88.073, 225.477 89.199, 222.220 88.347 C 219.438 87.620, 219.409 88.409, 222.118 91.118 C 223.584 92.584, 224.455 92.882, 224.948 92.084 C 225.340 91.451, 226.430 91.228, 227.371 91.589 C 228.312 91.950, 229.010 91.853, 228.922 91.373 C 228.526 89.200, 229.094 87.940, 230.170 88.605 C 230.939 89.081, 231.136 88.797, 230.745 87.777 C 230.302 86.625, 230.644 86.356, 232.075 86.730 C 233.389 87.073, 234 86.720, 234 85.617 C 234 83.338, 230.270 83.575, 229.532 85.901 M 264 85.994 C 264 87.741, 263.560 88.118, 261.999 87.710 C 260.898 87.422, 260.254 87.603, 260.569 88.111 C 261.153 89.057, 257.225 96.231, 255.793 96.833 C 254.554 97.354, 254.863 99.769, 256.250 100.417 C 257.250 100.883, 257.250 101.117, 256.250 101.583 C 255.527 101.921, 255 104.028, 255 106.583 C 255 109.013, 254.550 111, 254 111 C 253.450 111, 253 111.450, 253 112 C 253 112.550, 253.927 113, 255.059 113 C 256.191 113, 256.838 112.547, 256.496 111.994 C 256.154 111.441, 256.324 109.528, 256.873 107.744 C 257.422 105.960, 258.375 102.564, 258.991 100.197 C 259.608 97.831, 260.754 95.648, 261.538 95.347 C 262.600 94.939, 262.708 94.322, 261.959 92.923 C 261.153 91.417, 261.255 91.161, 262.477 91.629 C 263.544 92.039, 264 91.583, 264 90.107 C 264 88.901, 264.641 88, 265.500 88 C 266.325 88, 267 87.605, 267 87.122 C 267 86.640, 266.325 85.685, 265.500 85 C 264.243 83.956, 264 84.117, 264 85.994 M 245.750 86.816 C 243.135 87.117, 241.677 90, 244.140 90 C 244.767 90, 245.877 90.787, 246.608 91.750 C 247.843 93.377, 247.939 93.347, 247.968 91.333 C 247.986 90.142, 248.436 89.017, 248.968 88.833 C 250.979 88.141, 248.382 86.514, 245.750 86.816 M 291 87.071 C 291 87.751, 289.200 89.849, 287 91.732 C 284.800 93.615, 283.036 95.683, 283.079 96.328 C 283.138 97.200, 283.282 97.195, 283.644 96.306 C 284.173 95.005, 287.058 95.709, 288.235 97.427 C 288.646 98.028, 288.976 97.481, 288.985 96.184 C 289.006 92.994, 290.760 90, 292.609 90 C 293.507 90, 294.012 89.307, 293.823 88.333 C 293.441 86.364, 291 85.273, 291 87.071 M 302 87.378 C 302 88.843, 304.750 91.583, 305.485 90.849 C 305.724 90.609, 305.661 89.420, 305.344 88.206 C 304.717 85.809, 302 85.135, 302 87.378 M 271.500 92.500 C 271.500 93.875, 271.561 95, 271.636 95 C 271.710 95, 272.931 94.398, 274.349 93.663 C 276.307 92.647, 276.647 92.047, 275.763 91.163 C 273.717 89.117, 271.500 89.812, 271.500 92.500 M 237 93.353 C 237 94.178, 236.337 94.999, 235.526 95.177 C 234.604 95.379, 234.352 95.979, 234.854 96.780 C 235.505 97.820, 236.111 97.820, 238.086 96.780 C 240.909 95.293, 241.288 92.679, 238.750 92.190 C 237.711 91.990, 237 92.463, 237 93.353 M 210.143 95.890 C 209.397 96.363, 209.172 96.984, 209.643 97.270 C 210.114 97.556, 211.080 97.162, 211.789 96.395 C 213.218 94.849, 212.253 94.553, 210.143 95.890 M 267 97 C 267 97.550, 267.675 98, 268.500 98 C 269.325 98, 270.326 98.034, 270.725 98.075 C 271.124 98.116, 271.611 97.666, 271.808 97.075 C 272.005 96.484, 271.004 96, 269.583 96 C 268.163 96, 267 96.450, 267 97 M 238.079 98.583 C 238.127 99.748, 238.364 99.985, 238.683 99.188 C 238.972 98.466, 238.936 97.603, 238.604 97.271 C 238.272 96.939, 238.036 97.529, 238.079 98.583 M 240.500 99 C 240.840 99.550, 241.568 100, 242.118 100 C 242.668 100, 242.840 99.550, 242.500 99 C 242.160 98.450, 241.432 98, 240.882 98 C 240.332 98, 240.160 98.450, 240.500 99 M 299.692 100.931 C 299.970 101.993, 300.828 103.104, 301.599 103.399 C 303.270 104.041, 303.348 103.518, 301.965 100.934 C 300.625 98.431, 299.038 98.429, 299.692 100.931 M 209 102.531 C 209 104.286, 211.395 105.492, 212.960 104.525 C 213.659 104.093, 213.530 103.387, 212.579 102.436 C 210.703 100.560, 209 100.605, 209 102.531 M 259 102.059 C 259 102.641, 259.450 102.840, 260 102.500 C 260.550 102.160, 261 101.684, 261 101.441 C 261 101.198, 260.550 101, 260 101 C 259.450 101, 259 101.477, 259 102.059 M 296 104 C 296 104.550, 296.675 105, 297.500 105 C 298.325 105, 299 104.550, 299 104 C 299 103.450, 298.325 103, 297.500 103 C 296.675 103, 296 103.450, 296 104 M 214 106 C 214 106.550, 214.423 107, 214.941 107 C 215.459 107, 216.160 106.550, 216.500 106 C 216.840 105.450, 216.416 105, 215.559 105 C 214.702 105, 214 105.450, 214 106 M 222.475 106.041 C 222.121 106.613, 221.033 106.828, 220.057 106.518 C 219.076 106.207, 217.717 106.636, 217.019 107.477 C 215.530 109.272, 217.052 109.548, 218.800 107.800 C 219.733 106.867, 220 106.978, 220 108.300 C 220 109.235, 220.450 110, 221 110 C 221.550 110, 222 109.550, 222 109 C 222 108.450, 222.675 108, 223.500 108 C 224.325 108, 225 107.325, 225 106.500 C 225 104.781, 223.430 104.495, 222.475 106.041 M 279.318 108.387 C 279.705 109.396, 279.258 109.621, 277.675 109.213 C 275.677 108.699, 275.622 108.801, 276.992 110.471 C 278.379 112.161, 278.309 112.234, 275.992 111.509 C 274.621 111.081, 273.225 110.303, 272.889 109.781 C 272.553 109.259, 271.996 109.568, 271.651 110.466 C 271.093 111.922, 270.786 111.878, 268.835 110.061 C 267.631 108.939, 266.388 108.280, 266.073 108.597 C 264.931 109.744, 270.241 112.995, 272.569 112.573 C 273.948 112.323, 275.965 112.971, 277.453 114.142 L 279.989 116.136 279.907 113.818 C 279.861 112.543, 280.141 110.487, 280.529 109.250 C 280.996 107.759, 280.821 107, 280.010 107 C 279.337 107, 279.025 107.624, 279.318 108.387 M 294 108.500 C 294 109.362, 294.902 110, 296.122 110 C 297.896 110, 298.040 109.753, 297 108.500 C 296.315 107.675, 295.360 107, 294.878 107 C 294.395 107, 294 107.675, 294 108.500 M 228 109.441 C 228 111.480, 229.960 112.440, 231.329 111.071 C 232.201 110.199, 232.119 109.687, 230.992 108.974 C 228.881 107.640, 228 107.777, 228 109.441 M 235.104 110.648 C 233.878 112.036, 233.951 112.150, 235.713 111.591 C 236.946 111.200, 238.204 111.541, 238.981 112.477 C 240.271 114.032, 244.006 114.608, 243.992 113.250 C 243.985 112.604, 240.777 110.730, 237.500 109.457 C 236.950 109.244, 235.872 109.780, 235.104 110.648 M 224 112.088 C 224 112.590, 224.450 113, 225 113 C 225.550 113, 226.225 113, 226.500 113 C 227.901 113, 227.257 111.655, 225.750 111.434 C 224.787 111.293, 224 111.587, 224 112.088 M 283.500 112 C 283.840 112.550, 284.568 113, 285.118 113 C 285.668 113, 285.840 112.550, 285.500 112 C 285.160 111.450, 284.432 111, 283.882 111 C 283.332 111, 283.160 111.450, 283.500 112 M 289 111.941 C 289 112.459, 289.450 113.160, 290 113.500 C 290.550 113.840, 291 113.416, 291 112.559 C 291 111.702, 290.550 111, 290 111 C 289.450 111, 289 111.423, 289 111.941 M 281.211 113.399 C 281.920 114.169, 282.658 114.649, 282.850 114.466 C 283.443 113.902, 281.940 112, 280.902 112 C 280.362 112, 280.501 112.630, 281.211 113.399 M 233.513 113.794 C 234.056 114.182, 234.545 115.063, 234.600 115.750 C 234.845 118.812, 235.088 119.180, 236.500 118.638 C 238.403 117.908, 238.382 118.393, 236.318 122.742 L 234.636 126.286 237.862 129.168 C 241.035 132.003, 241.274 134, 238.441 134 C 237.648 134, 237 134.477, 237 135.059 C 237 135.641, 236.588 135.864, 236.085 135.553 C 235.582 135.242, 234.959 135.553, 234.700 136.244 C 234.369 137.128, 233.796 136.937, 232.766 135.597 C 231.962 134.551, 230.785 134.015, 230.152 134.406 C 229.475 134.825, 229 134.488, 229 133.590 C 229 132.573, 228.441 132.277, 227.326 132.705 C 226.058 133.192, 225.808 132.942, 226.295 131.674 C 226.650 130.748, 226.456 130, 225.862 130 C 225.270 130, 225.045 129.325, 225.362 128.500 C 225.718 127.570, 225.357 127, 224.410 127 C 223.543 127, 223.179 127.481, 223.569 128.112 C 223.947 128.723, 223.636 129.616, 222.878 130.096 C 221.796 130.782, 221.782 130.973, 222.809 130.985 C 223.529 130.993, 223.821 131.481, 223.458 132.068 C 223.095 132.656, 222.140 132.884, 221.337 132.576 C 220.504 132.256, 218.504 133.319, 216.688 135.046 C 213.900 137.696, 213.694 138.229, 215.047 139.288 C 215.897 139.955, 217.189 141.963, 217.918 143.750 C 218.647 145.537, 219.453 147, 219.711 147 C 220.607 147, 223.934 142.492, 223.967 141.234 C 223.988 140.442, 225.151 140.056, 227.075 140.203 C 230.278 140.447, 230.512 141.493, 228.461 146.409 C 227.746 148.122, 227.996 148.251, 230.904 147.669 C 232.686 147.313, 236.135 145.591, 238.570 143.842 C 243.859 140.044, 245.246 140.678, 241.731 145.286 C 239.416 148.321, 239.335 148.729, 240.842 149.754 C 242.361 150.788, 242.349 150.887, 240.691 150.941 C 239.696 150.974, 239.160 151.450, 239.500 152 C 239.840 152.550, 239.641 153, 239.059 153 C 238.477 153, 238 153.685, 238 154.521 C 238 155.358, 236.875 156.555, 235.500 157.182 C 232.821 158.403, 232.153 160, 234.321 160 C 235.048 160, 237.411 160.874, 239.571 161.943 C 244.260 164.263, 244.782 163.842, 248.099 155.060 C 249.691 150.843, 250.082 148.051, 249.716 143.500 C 248.850 132.726, 240.897 117.149, 236.146 116.921 C 235.109 116.871, 234.962 116.656, 235.750 116.338 C 237.819 115.503, 237.157 113.437, 234.763 113.257 C 233.532 113.164, 232.970 113.406, 233.513 113.794 M 273.149 115.664 C 271.548 117.403, 271.997 118.238, 273.901 117.061 C 274.639 116.605, 275.076 115.774, 274.872 115.214 C 274.657 114.626, 273.931 114.815, 273.149 115.664 M 350.150 114.950 C 350.370 115.610, 350.876 116.116, 351.275 116.075 C 352.471 115.951, 352.239 114.580, 350.950 114.150 C 350.290 113.930, 349.930 114.290, 350.150 114.950 M 211.653 116.911 C 209.954 117.540, 209.937 117.703, 211.445 118.955 C 212.687 119.985, 213.366 120.034, 214.242 119.158 C 215.813 117.587, 214.022 116.034, 211.653 116.911 M 368.500 117 C 368.840 117.550, 369.316 118, 369.559 118 C 369.802 118, 370 117.550, 370 117 C 370 116.450, 369.523 116, 368.941 116 C 368.359 116, 368.160 116.450, 368.500 117 M 337.250 117.718 C 335.532 118.334, 335.672 120, 337.441 120 C 339.097 120, 340.408 118.351, 339.266 117.704 C 338.845 117.465, 337.938 117.472, 337.250 117.718 M 300 119.417 C 300 120.196, 300.439 120.983, 300.977 121.167 C 301.514 121.350, 302.154 123.075, 302.399 125 C 304.032 137.829, 304.133 140, 303.094 140 C 302.492 140, 302 139.626, 302 139.169 C 302 138.712, 300.875 137.736, 299.500 137 C 298.125 136.264, 297 134.838, 297 133.831 C 297 132.824, 296.649 132, 296.219 132 C 295.790 132, 294.929 130.650, 294.306 129 C 293.683 127.350, 292.615 126, 291.932 126 C 291.117 126, 291.291 126.664, 292.437 127.930 C 294.121 129.791, 294.099 129.839, 291.842 129.257 C 289.838 128.740, 289.680 128.873, 290.746 130.175 C 291.768 131.422, 291.632 132.023, 289.996 133.503 C 288.898 134.497, 288 136.124, 288 137.120 C 288 138.115, 287.071 139.427, 285.935 140.035 C 284.359 140.878, 284.132 141.455, 284.977 142.472 C 285.798 143.461, 285.750 143.940, 284.792 144.327 C 283.786 144.732, 283.832 145.079, 285 145.892 C 285.852 146.485, 286.636 146.542, 286.815 146.024 C 286.988 145.523, 287.775 145.360, 288.565 145.663 C 289.354 145.966, 290 145.696, 290 145.063 C 290 144.430, 291.116 142.709, 292.481 141.237 C 294.479 139.083, 295.208 138.808, 296.224 139.824 C 297.241 140.841, 297.146 141.680, 295.739 144.132 C 294.778 145.807, 294.245 147.587, 294.555 148.089 C 294.865 148.590, 294.529 149.014, 293.809 149.032 C 293.002 149.051, 293.244 149.626, 294.441 150.532 C 296.194 151.857, 296.212 152, 294.632 152 C 293.670 152, 293.160 152.450, 293.500 153 C 294.468 154.566, 295.809 154.177, 296.455 152.143 C 296.779 151.122, 298.870 149.569, 301.103 148.692 C 303.527 147.739, 305.378 146.272, 305.698 145.049 C 306.563 141.740, 308.233 142.664, 307.491 146.041 C 307.064 147.985, 307.299 149.655, 308.143 150.672 C 309.278 152.040, 308.931 152.721, 305.646 155.560 L 301.830 158.859 305.665 159.924 C 307.774 160.510, 310.041 160.991, 310.703 160.994 C 312.811 161.004, 317 163.281, 316.990 164.411 C 316.984 165.010, 315.184 166.254, 312.990 167.176 C 308.652 168.997, 307.914 170.521, 310.908 171.471 C 313.156 172.184, 314.183 174.360, 313.325 176.596 C 312.876 177.765, 311.923 178.035, 309.767 177.603 C 307.181 177.086, 306.683 177.380, 305.691 180.007 C 304.974 181.907, 303.820 183.036, 302.531 183.099 C 295.054 183.461, 295.523 183.102, 295.199 188.720 C 294.647 198.287, 298.011 200.282, 306.074 195.168 C 310.911 192.100, 315.156 187.532, 317.649 182.712 C 319.477 179.176, 323.168 162.080, 322.378 160.803 C 322.084 160.327, 320.304 160.228, 318.422 160.581 C 316.386 160.963, 315 160.819, 315 160.226 C 315 158.932, 319.485 156, 321.465 156 C 323.380 156, 323.485 154.123, 321.611 153.404 C 320.786 153.088, 320.410 151.982, 320.685 150.685 C 321.133 148.570, 321.099 148.561, 319.605 150.398 C 318.375 151.912, 317.770 152.054, 316.620 151.100 C 315.638 150.285, 314.971 150.237, 314.530 150.951 C 313.548 152.540, 310 152.206, 310 150.526 C 310 149.715, 311.462 148.308, 313.250 147.399 C 315.038 146.489, 316.662 145.604, 316.859 145.430 C 317.057 145.257, 316.241 143.742, 315.046 142.064 C 313.851 140.386, 313.154 138.561, 313.496 138.007 C 313.838 137.453, 313.699 137, 313.187 137 C 312.210 137, 307.869 127.798, 308.533 127.134 C 308.743 126.923, 310.319 127.932, 312.034 129.376 C 315.316 132.137, 317 132.681, 317 130.981 C 317 130.377, 318.084 130.234, 319.664 130.631 C 321.912 131.195, 322.225 131.029, 321.664 129.568 C 321.299 128.616, 321 127.480, 321 127.045 C 321 126.610, 319.538 126.309, 317.750 126.377 C 313.992 126.519, 302.033 121.103, 302.013 119.250 C 302.006 118.563, 301.550 118, 301 118 C 300.450 118, 300 118.638, 300 119.417 M 269.813 119.683 C 270.534 119.972, 271.397 119.936, 271.729 119.604 C 272.061 119.272, 271.471 119.036, 270.417 119.079 C 269.252 119.127, 269.015 119.364, 269.813 119.683 M 350.250 119.662 C 348.509 120.365, 348.684 122, 350.500 122 C 351.325 122, 352 121.325, 352 120.500 C 352 119.675, 351.887 119.036, 351.750 119.079 C 351.613 119.122, 350.938 119.385, 350.250 119.662 M 147 122.083 C 147 124.520, 149.337 124.176, 149.823 121.667 C 150.015 120.680, 149.505 120, 148.573 120 C 147.646 120, 147 120.855, 147 122.083 M 251.147 120.888 C 250.091 121.557, 250.044 122.214, 250.932 123.873 C 251.558 125.043, 252.505 126, 253.035 126 C 254.329 126, 254.265 124.282, 252.940 123.463 C 252.270 123.049, 252.546 122.303, 253.690 121.436 C 255.122 120.350, 255.187 120.060, 254 120.047 C 253.175 120.038, 251.891 120.417, 251.147 120.888 M 290 121 C 290 121.550, 290.450 122, 291 122 C 291.550 122, 292 121.550, 292 121 C 292 120.450, 291.550 120, 291 120 C 290.450 120, 290 120.450, 290 121 M 135 124 C 135 125.867, 135.267 126.133, 136.200 125.200 C 137.133 124.267, 137.133 123.733, 136.200 122.800 C 135.267 121.867, 135 122.133, 135 124 M 203 122.981 C 203 123.520, 201.875 124.244, 200.500 124.589 C 199.125 124.934, 198 125.628, 198 126.130 C 198 126.632, 196.875 127.555, 195.500 128.182 C 192.907 129.363, 192.059 131.976, 194.250 132.032 C 194.938 132.049, 194.208 133.199, 192.629 134.587 C 190.902 136.106, 189.668 138.271, 189.530 140.022 C 189.404 141.623, 188.728 143.623, 188.028 144.466 C 187.161 145.511, 187.113 146, 187.878 146 C 188.495 146, 189 146.450, 189 147 C 189 147.550, 188.395 148, 187.655 148 C 185.953 148, 182.592 151.634, 183.685 152.293 C 185.409 153.333, 199.669 153.915, 203 153.081 C 204.925 152.599, 205.825 152.144, 205 152.069 C 203.076 151.895, 199 148.512, 199 147.090 C 199 146.490, 198.550 146, 198 146 C 196.151 146, 196.979 142.178, 199.470 139.218 C 201.210 137.151, 201.829 135.397, 201.562 133.293 C 201.354 131.649, 202.021 128.436, 203.043 126.152 C 204.066 123.869, 204.474 122, 203.951 122 C 203.428 122, 203 122.441, 203 122.981 M 335.954 124.086 C 335.340 125.233, 335.089 126.422, 335.395 126.728 C 336.221 127.554, 339 124.971, 339 123.378 C 339 121.307, 337.220 121.721, 335.954 124.086 M 262.682 123.651 C 262.324 124.009, 262.812 124.909, 263.766 125.651 C 265.400 126.922, 265.386 127.088, 263.529 128.522 C 262.444 129.359, 261.094 129.871, 260.529 129.659 C 255.835 127.903, 255.001 127.907, 255.026 129.683 C 255.041 130.682, 255.841 133.256, 256.806 135.403 L 258.559 139.305 260.426 135.164 C 261.783 132.155, 263.210 130.692, 265.646 129.811 C 267.799 129.033, 268.654 128.254, 268.034 127.634 C 267.415 127.015, 267.683 126.165, 268.785 125.261 C 270.358 123.968, 270.314 123.891, 268.249 124.333 C 267.010 124.597, 266.249 124.405, 266.558 123.907 C 267.192 122.880, 263.685 122.649, 262.682 123.651 M 343.503 124.991 C 342.763 127.324, 343.574 129, 345.442 129 C 347.181 129, 348.072 125.472, 346.684 124.084 C 345.097 122.497, 344.215 122.749, 343.503 124.991 M 159 125 C 159 125.615, 158.505 125.812, 157.900 125.438 C 157.127 124.961, 157.138 125.389, 157.935 126.879 C 159.068 128.996, 158.393 129.596, 155.500 129.047 C 154.950 128.943, 155.043 129.410, 155.708 130.086 C 156.663 131.058, 157.236 131.049, 158.447 130.044 C 159.289 129.345, 159.700 128.324, 159.361 127.775 C 159.021 127.226, 159.299 126.433, 159.979 126.013 C 160.857 125.470, 160.894 125.053, 160.107 124.566 C 159.498 124.190, 159 124.385, 159 125 M 210.698 125.149 C 209.560 125.786, 209.124 126.816, 209.497 127.990 C 209.818 129.003, 209.633 130.109, 209.084 130.448 C 208.536 130.787, 208.371 131.803, 208.717 132.706 C 209.191 133.940, 208.932 134.188, 207.674 133.705 C 206.467 133.242, 206 133.598, 206 134.981 C 206 136.036, 204.537 138.289, 202.750 139.988 C 199.598 142.983, 199.559 143.121, 201.441 144.538 C 202.509 145.342, 204.096 146, 204.969 146 C 205.841 146, 207.556 146.701, 208.779 147.558 C 210.003 148.415, 211.368 148.891, 211.813 148.616 C 212.927 147.927, 212.436 142.230, 211.126 140.652 C 210.357 139.726, 210.430 138.821, 211.384 137.432 C 212.114 136.369, 212.648 133.813, 212.570 131.750 C 212.492 129.688, 212.742 128, 213.125 128 C 213.860 128, 213.715 125.381, 212.937 124.604 C 212.688 124.354, 211.680 124.600, 210.698 125.149 M 255 125.559 C 255 126.416, 255.450 126.840, 256 126.500 C 256.550 126.160, 257 125.459, 257 124.941 C 257 124.423, 256.550 124, 256 124 C 255.450 124, 255 124.702, 255 125.559 M 373 126.059 C 373 127.191, 373.450 127.840, 374 127.500 C 374.550 127.160, 375 126.234, 375 125.441 C 375 124.648, 374.550 124, 374 124 C 373.450 124, 373 124.927, 373 126.059 M 154.500 127 C 154.160 127.550, 154.610 128, 155.500 128 C 156.390 128, 156.840 127.550, 156.500 127 C 156.160 126.450, 155.710 126, 155.500 126 C 155.290 126, 154.840 126.450, 154.500 127 M 173 126.819 C 173 128.027, 174.897 129.436, 175.591 128.743 C 175.842 128.491, 175.362 127.716, 174.524 127.020 C 173.574 126.231, 173 126.155, 173 126.819 M 333 127.819 C 333 129.027, 334.897 130.436, 335.591 129.743 C 335.842 129.491, 335.362 128.716, 334.524 128.020 C 333.574 127.231, 333 127.155, 333 127.819 M 281.500 129 C 281.160 129.550, 281.359 130, 281.941 130 C 282.523 130, 283 129.550, 283 129 C 283 128.450, 282.802 128, 282.559 128 C 282.316 128, 281.840 128.450, 281.500 129 M 119.750 130.080 C 117.138 131.602, 117.581 132.430, 122.066 134.409 C 125.642 135.987, 126.274 136.024, 127.316 134.716 C 127.967 133.899, 129.048 133.066, 129.718 132.865 C 130.532 132.621, 130.629 132.006, 130.010 131.008 C 129.272 129.820, 128.830 129.770, 127.842 130.758 C 126.119 132.481, 123 132.315, 123 130.500 C 123 128.761, 122.193 128.657, 119.750 130.080 M 172 129.471 C 172 130.486, 174.920 131.938, 175.400 131.162 C 175.718 130.648, 175.083 129.993, 173.989 129.707 C 172.895 129.421, 172 129.315, 172 129.471 M 383.660 131.193 C 382.913 134.048, 384.514 135.036, 387.581 133.614 C 390.277 132.364, 391.010 129.398, 388.373 130.410 C 387.479 130.754, 386.184 130.567, 385.495 129.996 C 384.570 129.229, 384.092 129.541, 383.660 131.193 M 334.074 131.877 C 332.740 132.250, 331.536 133.117, 331.399 133.803 C 331.262 134.489, 331.379 134.589, 331.658 134.025 C 331.938 133.461, 333.003 133, 334.024 133 C 335.046 133, 336.160 132.550, 336.500 132 C 336.840 131.450, 336.979 131.045, 336.809 131.100 C 336.639 131.155, 335.408 131.504, 334.074 131.877 M 176.872 133.750 C 175.629 135.336, 175.664 135.371, 177.250 134.128 C 178.916 132.821, 179.445 132, 178.622 132 C 178.415 132, 177.627 132.787, 176.872 133.750 M 373.875 132.500 C 373.806 132.775, 373.637 133.450, 373.500 134 C 373.363 134.550, 373.137 135.225, 373 135.500 C 372.308 136.885, 372.576 138.629, 373.655 139.750 C 375.123 141.276, 377 141.384, 377 139.941 C 377 139.359, 376.640 139.104, 376.200 139.376 C 375.760 139.648, 374.881 139.040, 374.247 138.024 C 373.335 136.563, 373.397 136.062, 374.547 135.620 C 376.178 134.995, 376.552 132, 375 132 C 374.450 132, 373.944 132.225, 373.875 132.500 M 110.500 134 C 110.840 134.550, 111.316 135, 111.559 135 C 111.802 135, 112 134.550, 112 134 C 112 133.450, 111.523 133, 110.941 133 C 110.359 133, 110.160 133.450, 110.500 134 M 142 134.825 C 142 137.192, 142.839 137.999, 144.598 137.324 C 146.526 136.584, 146.356 135.703, 144 134.232 C 142.272 133.153, 142 133.233, 142 134.825 M 270.062 133.961 C 266.113 134.933, 261.135 143.292, 256.410 156.884 C 249.960 175.444, 250.278 179.367, 260.142 202.892 C 262.539 208.608, 265.203 213.727, 266.061 214.268 C 268.553 215.838, 278.315 212.512, 282.332 208.724 C 286.287 204.993, 288.861 197.859, 289.717 188.250 L 290.274 182 287.244 182 C 284.041 182, 282.107 184.443, 284.563 185.386 C 286.168 186.002, 286.497 188.575, 285.084 189.448 C 284.580 189.760, 283.036 189.584, 281.654 189.058 C 279.682 188.309, 278.605 188.523, 276.662 190.051 C 273.249 192.736, 270.849 192.603, 271.241 189.750 C 271.411 188.512, 271.847 187.029, 272.209 186.452 C 272.572 185.876, 272.528 184.854, 272.112 184.182 C 271.564 183.294, 270.212 183.788, 267.178 185.986 C 263.216 188.856, 263 188.903, 263 186.901 C 263 185.740, 264.068 182.664, 265.373 180.065 L 267.747 175.340 263.395 172.420 C 261.002 170.814, 259.034 169.193, 259.022 168.817 C 258.990 167.814, 263.166 166.589, 265.654 166.873 C 266.839 167.008, 268.037 166.749, 268.316 166.298 C 268.987 165.212, 266.525 161.907, 264.834 161.626 C 261.877 161.134, 258.895 158.781, 259.203 157.183 C 259.560 155.329, 263.991 154.596, 264.015 156.387 C 264.024 156.999, 264.459 156.825, 264.983 156 C 265.507 155.175, 267.373 154.500, 269.131 154.500 C 270.888 154.500, 272.515 153.938, 272.746 153.250 C 272.978 152.563, 272.454 152, 271.583 152 C 270.712 152, 270 151.619, 270 151.153 C 270 150.687, 269.100 149.268, 268 148 C 263.864 143.231, 266.520 141.916, 272.111 145.965 C 278.007 150.236, 280 150.025, 280 145.129 C 280 141.845, 279.481 140.902, 276.575 138.911 C 274.692 137.621, 273.312 136.304, 273.509 135.985 C 274.357 134.613, 272.305 133.408, 270.062 133.961 M 360.015 133.691 C 360.024 134.136, 360.467 135.175, 361 136 C 361.835 137.293, 361.971 137.266, 361.985 135.809 C 361.993 134.879, 361.550 133.840, 361 133.500 C 360.450 133.160, 360.007 133.246, 360.015 133.691 M 364.606 134.416 C 364.941 135.287, 365.653 136, 366.190 136 C 367.505 136, 366.682 133.727, 365.187 133.229 C 364.456 132.985, 364.233 133.443, 364.606 134.416 M 323.904 135.615 C 322.744 137.013, 322.818 137.181, 324.449 136.865 C 325.486 136.664, 326.522 135.938, 326.750 135.250 C 327.344 133.466, 325.490 133.704, 323.904 135.615 M 356 134.883 C 356 135.369, 356.926 136.009, 358.057 136.305 C 359.745 136.746, 359.903 136.588, 358.935 135.421 C 357.614 133.830, 356 133.535, 356 134.883 M 92.580 135.870 C 92.273 136.367, 92.692 137.329, 93.511 138.009 C 94.722 139.014, 95 138.953, 95 137.681 C 95 135.815, 93.369 134.594, 92.580 135.870 M 115 136.594 C 115 137.367, 115.401 138, 115.891 138 C 117.043 138, 117.862 144.879, 116.754 145.249 C 116.292 145.403, 117.235 146.028, 118.850 146.637 C 121.202 147.525, 121.746 147.478, 121.588 146.402 C 121.480 145.663, 121.078 144.745, 120.696 144.362 C 120.313 143.980, 120 142.842, 120 141.833 C 120 140.825, 119.592 140, 119.094 140 C 118.595 140, 118.406 139.162, 118.674 138.138 C 119.010 136.854, 118.515 136.106, 117.081 135.731 C 115.701 135.371, 115 135.661, 115 136.594 M 181 136.059 C 181 136.641, 181.450 136.840, 182 136.500 C 182.550 136.160, 183 135.684, 183 135.441 C 183 135.198, 182.550 135, 182 135 C 181.450 135, 181 135.477, 181 136.059 M 327.374 136.467 C 326.321 139.211, 327.570 140.239, 328.766 137.613 C 329.514 135.973, 329.581 135, 328.947 135 C 328.392 135, 327.684 135.660, 327.374 136.467 M 100.583 136.866 C 100.152 137.563, 100.070 138.403, 100.400 138.733 C 101.295 139.628, 102.271 138.312, 101.787 136.862 C 101.449 135.846, 101.213 135.846, 100.583 136.866 M 277 137.059 C 277 137.641, 277.450 137.840, 278 137.500 C 278.550 137.160, 279 136.684, 279 136.441 C 279 136.198, 278.550 136, 278 136 C 277.450 136, 277 136.477, 277 137.059 M 405.515 137.024 C 405.800 137.485, 405.572 138.147, 405.009 138.495 C 404.364 138.893, 404.560 139.703, 405.540 140.683 C 407.294 142.437, 407.492 142.347, 408.404 139.374 C 408.897 137.766, 408.562 137.119, 407.027 136.717 C 405.910 136.425, 405.230 136.563, 405.515 137.024 M 139.250 137.718 C 137.366 138.394, 137.748 139.701, 140 140.290 C 141.269 140.622, 142 140.320, 142 139.465 C 142 137.813, 140.913 137.122, 139.250 137.718 M 389.750 139.863 C 388.238 141.405, 387 143.218, 387 143.892 C 387 144.566, 386.492 144.804, 385.870 144.420 C 385.186 143.997, 384.922 144.266, 385.201 145.102 C 385.454 145.861, 385.062 147.081, 384.330 147.813 C 382.288 149.855, 382.738 151, 385.583 151 C 387.221 151, 388.003 150.543, 387.721 149.750 C 387.475 149.063, 387.899 147.262, 388.663 145.750 C 389.427 144.238, 389.783 143, 389.454 143 C 389.126 143, 389.532 142.325, 390.357 141.500 C 391.182 140.675, 392.602 140, 393.512 140 C 394.422 140, 394.989 139.466, 394.771 138.813 C 394.063 136.689, 392.553 137.005, 389.750 139.863 M 133.473 139.044 C 133.148 139.570, 131.896 140.014, 130.691 140.030 C 128.648 140.059, 128.625 140.133, 130.346 141.134 C 131.608 141.867, 132.518 141.882, 133.218 141.182 C 133.782 140.618, 134.864 140.394, 135.622 140.685 C 136.380 140.976, 137 140.764, 137 140.214 C 137 138.815, 134.191 137.883, 133.473 139.044 M 231 139.535 C 231 140.807, 231.385 140.870, 233.250 139.900 C 236.559 138.178, 236.598 138, 233.667 138 C 231.936 138, 231 138.539, 231 139.535 M 422.676 139.402 C 422.059 141.011, 422.781 142, 424.573 142 C 425.320 142, 425.605 141.206, 425.290 140 C 424.681 137.674, 423.447 137.392, 422.676 139.402 M 102.798 139.535 C 101.696 140.638, 103.106 143.001, 104.857 142.985 C 105.891 142.975, 106.092 142.697, 105.400 142.235 C 104.795 141.831, 104.111 140.909, 103.879 140.188 C 103.648 139.466, 103.161 139.172, 102.798 139.535 M 152.250 139.662 C 150.348 140.430, 150.757 141.556, 153 141.725 C 154.143 141.811, 155 141.259, 155 140.438 C 155 138.956, 154.411 138.790, 152.250 139.662 M 354.694 139.639 C 353.768 140.565, 354.883 142, 356.528 142 C 357.370 142, 357.706 141.396, 357.362 140.500 C 356.751 138.909, 355.748 138.586, 354.694 139.639 M 162 142 C 162 143.289, 162.506 143.998, 163.250 143.750 C 163.938 143.521, 164.500 142.733, 164.500 142 C 164.500 141.267, 163.938 140.479, 163.250 140.250 C 162.506 140.002, 162 140.711, 162 142 M 345.110 141.367 C 344.251 142.402, 344.315 143.016, 345.371 143.893 C 346.457 144.794, 346.903 144.695, 347.383 143.444 C 348.713 139.978, 347.320 138.705, 345.110 141.367 M 338.150 141.950 C 338.370 142.610, 338.876 143.116, 339.275 143.075 C 340.471 142.951, 340.239 141.580, 338.950 141.150 C 338.290 140.930, 337.930 141.290, 338.150 141.950 M 417.596 141.737 C 417.191 142.143, 416.328 142.524, 415.679 142.585 C 415.031 142.646, 413.686 142.764, 412.691 142.848 C 411.685 142.932, 411.175 143.474, 411.542 144.068 C 411.905 144.656, 412.832 144.895, 413.601 144.600 C 414.371 144.304, 415 144.568, 415 145.186 C 415 145.824, 415.791 145.594, 416.829 144.655 C 417.835 143.745, 419.185 143, 419.829 143 C 420.473 143, 421 142.550, 421 142 C 421 140.837, 418.675 140.658, 417.596 141.737 M 403.485 144.024 C 403.126 144.606, 402.007 144.820, 401 144.500 C 398.688 143.766, 397.432 145.568, 399.659 146.423 C 401.158 146.998, 401.144 147.174, 399.506 148.372 C 397.785 149.630, 397.792 149.712, 399.661 150.201 C 401.080 150.572, 402.215 149.802, 403.788 147.402 C 404.982 145.582, 405.549 143.839, 405.048 143.530 C 404.548 143.220, 403.844 143.443, 403.485 144.024 M 167.171 146.476 C 168.418 149.212, 167.985 149.314, 173 145.101 C 173.275 144.870, 172.680 144.976, 171.678 145.337 C 170.675 145.698, 168.991 145.530, 167.935 144.965 C 166.164 144.017, 166.105 144.135, 167.171 146.476 M 340.500 146 C 340.160 146.550, 340.332 147, 340.882 147 C 341.432 147, 342.160 146.550, 342.500 146 C 342.840 145.450, 342.668 145, 342.118 145 C 341.568 145, 340.840 145.450, 340.500 146 M 368.471 145.804 C 367.401 146.571, 366.729 148.563, 366.633 151.250 C 366.599 152.213, 366.105 153.007, 365.536 153.015 C 364.872 153.025, 364.892 153.294, 365.593 153.765 C 367.277 154.897, 364.332 161.341, 362.460 160.623 C 361.657 160.315, 361 160.525, 361 161.090 C 361 161.656, 360.584 161.861, 360.075 161.547 C 359.567 161.232, 357.667 162.331, 355.852 163.988 C 353.063 166.536, 352.858 166.999, 354.527 166.994 C 357.717 166.985, 364.371 164.915, 366.078 163.401 C 367.026 162.560, 367.679 160.303, 367.713 157.747 C 367.744 155.407, 368.260 151.719, 368.858 149.552 C 370.031 145.303, 369.972 144.729, 368.471 145.804 M 85 147.167 C 85 147.808, 85.296 148.037, 85.658 147.675 C 86.020 147.313, 86.920 147.519, 87.658 148.131 C 88.687 148.985, 89 148.866, 89 147.622 C 89 146.667, 88.178 146, 87 146 C 85.900 146, 85 146.525, 85 147.167 M 107.336 147.567 C 107.005 148.429, 107.243 149.643, 107.863 150.263 C 108.702 151.102, 109.356 150.895, 110.408 149.457 C 111.186 148.393, 111.611 147.180, 111.352 146.761 C 110.528 145.427, 107.959 145.943, 107.336 147.567 M 79.658 147.675 C 79.296 148.037, 79.036 149.496, 79.079 150.917 C 79.122 152.338, 79.376 152.963, 79.644 152.306 C 79.911 151.650, 80.775 151.360, 81.565 151.663 C 82.415 151.989, 83 151.608, 83 150.729 C 83 148.950, 80.588 146.746, 79.658 147.675 M 95.554 147.912 C 95.157 148.555, 93.970 148.808, 92.916 148.473 C 90.302 147.644, 90.450 149.861, 93.074 150.832 C 95.709 151.806, 95.652 152.651, 92.794 154.968 C 91.532 155.991, 90.835 157.164, 91.244 157.574 C 92.119 158.453, 96 154.264, 96 152.441 C 96 151.661, 96.851 151.374, 98.250 151.680 C 99.571 151.970, 100.052 151.828, 99.415 151.337 C 98.818 150.877, 97.867 149.655, 97.303 148.622 C 96.592 147.321, 96.055 147.103, 95.554 147.912 M 117.510 147.984 C 116.773 149.177, 117.709 151, 119.059 151 C 120.276 151, 120.284 148.293, 119.069 147.543 C 118.557 147.226, 117.856 147.425, 117.510 147.984 M 159.510 148.016 C 159.856 148.575, 160.557 148.774, 161.069 148.457 C 162.456 147.600, 162.198 147, 160.441 147 C 159.584 147, 159.165 147.457, 159.510 148.016 M 285.500 149 C 285.840 149.550, 286.316 150, 286.559 150 C 286.802 150, 287 149.550, 287 149 C 287 148.450, 286.523 148, 285.941 148 C 285.359 148, 285.160 148.450, 285.500 149 M 415.609 149.824 C 415.256 150.395, 415.455 151.163, 416.050 151.531 C 417.536 152.449, 418.062 151.719, 417.071 150.114 C 416.539 149.255, 416.024 149.152, 415.609 149.824 M 121.079 151.583 C 121.127 152.748, 121.364 152.985, 121.683 152.188 C 121.972 151.466, 121.936 150.603, 121.604 150.271 C 121.272 149.939, 121.036 150.529, 121.079 151.583 M 280.500 151 C 280.160 151.550, 280.359 152, 280.941 152 C 281.523 152, 282 151.550, 282 151 C 282 150.450, 281.802 150, 281.559 150 C 281.316 150, 280.840 150.450, 280.500 151 M 111 152.559 C 111 153.416, 111.450 153.840, 112 153.500 C 112.550 153.160, 113 152.459, 113 151.941 C 113 151.423, 112.550 151, 112 151 C 111.450 151, 111 151.702, 111 152.559 M 227.263 153.161 C 227.142 154.771, 227.385 155.015, 228.251 154.149 C 229.008 153.392, 229.063 152.663, 228.412 152.012 C 227.761 151.361, 227.369 151.753, 227.263 153.161 M 391.667 151.667 C 390.452 152.881, 390.976 153.947, 392.500 153.362 C 393.325 153.045, 394 152.384, 394 151.893 C 394 150.845, 392.622 150.711, 391.667 151.667 M 145.116 153.309 C 145.052 154.304, 144.618 154.882, 144.151 154.593 C 143.684 154.304, 142.691 155.290, 141.944 156.784 C 141.197 158.278, 139.958 160.262, 139.189 161.193 C 137.939 162.709, 138.190 163.053, 141.588 164.472 C 143.675 165.344, 146.535 166.314, 147.942 166.628 L 150.500 167.197 147.836 164.849 C 144.850 162.216, 143.635 159.116, 144.601 156.598 C 145.185 155.075, 145.410 155.061, 146.955 156.459 C 148.757 158.090, 150 157.603, 150 155.266 C 150 154.340, 149.350 154.072, 148.081 154.474 C 146.749 154.897, 146.020 154.535, 145.697 153.292 C 145.254 151.584, 145.227 151.585, 145.116 153.309 M 152.020 152.988 C 150.778 153.755, 150.824 153.995, 152.321 154.570 C 154.408 155.370, 155.770 154.370, 154.425 153.025 C 153.857 152.457, 152.903 152.442, 152.020 152.988 M 354 154.441 C 354 156.557, 355.693 157.243, 356.395 155.412 C 357.250 153.184, 357.182 153, 355.500 153 C 354.675 153, 354 153.648, 354 154.441 M 417.667 153.667 C 416.421 154.912, 416.993 158, 418.469 158 C 419.363 158, 419.712 158.586, 419.362 159.500 C 419.045 160.325, 419.284 161, 419.893 161 C 421.464 161, 421.265 158.408, 419.564 156.707 C 418.493 155.636, 418.417 154.983, 419.264 154.136 C 419.980 153.420, 420.018 153, 419.367 153 C 418.798 153, 418.033 153.300, 417.667 153.667 M 336.543 154.931 C 336.226 155.443, 336.425 156.144, 336.984 156.490 C 337.543 156.835, 338 156.416, 338 155.559 C 338 153.802, 337.400 153.544, 336.543 154.931 M 378.726 155.940 C 378.286 157.624, 378.468 157.725, 380.109 156.700 C 382.330 155.313, 382.577 154, 380.617 154 C 379.856 154, 379.005 154.873, 378.726 155.940 M 127.500 156 C 127.840 156.550, 128.568 157, 129.118 157 C 129.668 157, 129.840 156.550, 129.500 156 C 129.160 155.450, 128.432 155, 127.882 155 C 127.332 155, 127.160 155.450, 127.500 156 M 171.428 156.328 C 171.148 157.058, 171.403 158.931, 171.996 160.490 C 173.377 164.123, 172.036 165.625, 168.905 163.949 C 167.203 163.038, 166.495 163.014, 166.214 163.857 C 166.005 164.485, 165.141 165, 164.294 165 C 163.131 165, 163.023 165.323, 163.854 166.324 C 164.656 167.290, 164.635 167.965, 163.776 168.824 C 162.100 170.500, 161.308 170.288, 160.710 168 C 160.295 166.411, 159.346 166, 156.094 166 C 153.261 166, 152 166.429, 152 167.393 C 152 168.973, 154.118 170, 157.375 170 C 158.591 170, 163.566 171.154, 168.430 172.564 C 174.499 174.323, 177.596 174.804, 178.303 174.097 C 180.127 172.273, 179.407 167.082, 176.483 160.964 C 173.627 154.990, 172.380 153.846, 171.428 156.328 M 180 156 C 180 156.550, 180.450 157, 181 157 C 181.550 157, 182 156.550, 182 156 C 182 155.450, 181.550 155, 181 155 C 180.450 155, 180 155.450, 180 156 M 213 156.809 C 213 158.123, 215.789 161.545, 216.379 160.955 C 217.377 159.956, 215.784 156, 214.383 156 C 213.623 156, 213 156.364, 213 156.809 M 332.194 156.880 C 330.730 157.785, 328.030 167.085, 328.012 171.281 C 327.995 175.142, 329.902 175.530, 338.258 173.366 C 346.785 171.159, 350.585 168.418, 349.567 165.210 L 348.877 163.037 346.724 165.043 C 345.539 166.146, 344.047 166.848, 343.407 166.603 C 342.767 166.357, 341.758 166.642, 341.164 167.236 C 340.392 168.008, 339.674 167.974, 338.640 167.116 C 337.508 166.177, 337.096 166.197, 336.743 167.208 C 336.408 168.169, 335.743 168.012, 334.146 166.595 C 331.983 164.675, 331.248 162, 332.883 162 C 334.050 162, 335.138 157.738, 334.209 156.809 C 333.810 156.410, 332.903 156.442, 332.194 156.880 M 186.117 158.750 L 184.012 160.500 186.278 169.618 C 188.918 180.236, 192.247 185.633, 199.488 191.031 C 209.607 198.574, 215.289 200.001, 217.025 195.435 C 218.199 192.347, 218.332 181, 217.194 181 C 216.751 181, 214.913 182.088, 213.110 183.419 C 210.316 185.480, 209.393 185.684, 206.862 184.802 C 204.286 183.904, 203.973 183.401, 204.497 181.013 C 204.994 178.750, 204.708 178.157, 202.889 177.681 C 201.672 177.363, 199.840 177.550, 198.818 178.098 C 195.603 179.818, 194.745 178.097, 196.953 174.355 C 198.079 172.447, 199 170.722, 199 170.522 C 199 170.322, 197.681 169.869, 196.069 169.515 C 189.580 168.090, 189.634 163.419, 196.130 164.291 C 201.602 165.025, 201.146 162.942, 195.115 159.659 C 189.342 156.517, 188.861 156.468, 186.117 158.750 M 278.100 157.938 C 277.112 158.549, 277.350 159.132, 279.088 160.349 C 281.911 162.327, 282.667 161.790, 280.804 159.131 C 279.911 157.856, 278.932 157.424, 278.100 157.938 M 380.643 159.488 C 380.227 160.572, 380.659 160.887, 382.233 160.647 C 383.422 160.465, 384.568 159.796, 384.781 159.158 C 385.356 157.433, 381.308 157.755, 380.643 159.488 M 86.380 160.452 C 85.401 163.004, 87.135 164.536, 88.653 162.460 C 89.394 161.447, 90 160.254, 90 159.809 C 90 158.398, 86.961 158.938, 86.380 160.452 M 128 161 C 126.718 161.828, 126.754 161.972, 128.250 161.985 C 129.213 161.993, 130 161.550, 130 161 C 130 159.780, 129.887 159.780, 128 161 M 340.500 161 C 340.840 161.550, 341.316 162, 341.559 162 C 341.802 162, 342 161.550, 342 161 C 342 160.450, 341.523 160, 340.941 160 C 340.359 160, 340.160 160.450, 340.500 161 M 299.694 161.701 C 299.428 162.141, 299.814 163.058, 300.552 163.740 C 301.290 164.422, 302.138 164.586, 302.436 164.103 C 302.734 163.621, 302.348 162.704, 301.578 162.065 C 300.808 161.426, 299.960 161.262, 299.694 161.701 M 389.129 162.345 C 388.193 163.472, 388.379 163.866, 390.053 164.304 C 391.206 164.605, 392.399 165.810, 392.706 166.982 C 393.057 168.327, 393.798 168.908, 394.713 168.557 C 395.511 168.250, 396.352 168, 396.582 168 C 396.812 168, 397 167.325, 397 166.500 C 397 165.675, 396.467 165, 395.814 165 C 395.162 165, 393.655 164.085, 392.465 162.967 C 390.629 161.243, 390.122 161.148, 389.129 162.345 M 226 162.393 C 226 162.609, 226.675 163.045, 227.500 163.362 C 228.325 163.678, 229 163.501, 229 162.969 C 229 162.436, 228.325 162, 227.500 162 C 226.675 162, 226 162.177, 226 162.393 M 397.610 164.750 C 398.467 168.385, 400 170.016, 400 167.294 C 400 165.680, 400.467 165.309, 402 165.710 C 403.100 165.998, 404 166.631, 404 167.117 C 404 167.602, 404.675 168, 405.500 168 C 406.325 168, 407 167.325, 407 166.500 C 407 165.675, 406.523 165, 405.941 165 C 405.359 165, 405.141 164.581, 405.457 164.069 C 406.371 162.591, 404.054 161.710, 402.545 162.962 C 401.605 163.742, 400.975 163.769, 400.530 163.049 C 400.174 162.472, 399.225 162, 398.422 162 C 397.339 162, 397.129 162.710, 397.610 164.750 M 114 164.161 C 114 164.622, 114.900 165.067, 116 165.150 C 117.100 165.233, 118.525 165.345, 119.167 165.400 C 119.808 165.455, 120.483 165.050, 120.667 164.499 C 120.850 163.949, 119.425 163.459, 117.500 163.410 C 115.575 163.362, 114 163.699, 114 164.161 M 305.500 164 C 305.840 164.550, 306.316 165, 306.559 165 C 306.802 165, 307 164.550, 307 164 C 307 163.450, 306.523 163, 305.941 163 C 305.359 163, 305.160 163.450, 305.500 164 M 415.275 164.923 C 413.108 166.731, 413.102 166.793, 415.038 167.300 C 416.325 167.636, 417.374 167.170, 418.013 165.976 C 419.904 162.442, 418.771 162.006, 415.275 164.923 M 271.667 164.667 C 271.300 165.033, 271.014 166.046, 271.030 166.917 C 271.055 168.217, 271.251 168.174, 272.122 166.675 C 273.199 164.823, 272.887 163.447, 271.667 164.667 M 107.265 166.534 C 106.263 167.629, 106.626 168.309, 109.180 170.128 C 112.321 172.365, 112.329 172.365, 111.778 170.261 C 111.397 168.801, 111.623 168.302, 112.512 168.643 C 113.814 169.143, 115.615 167.282, 114.708 166.374 C 113.526 165.193, 108.391 165.303, 107.265 166.534 M 207 166.059 C 207 166.641, 207.450 166.840, 208 166.500 C 208.550 166.160, 209 165.684, 209 165.441 C 209 165.198, 208.550 165, 208 165 C 207.450 165, 207 165.477, 207 166.059 M 100.133 168.621 C 99.107 169.781, 99.051 170.451, 99.911 171.311 C 101.328 172.728, 104.342 171.091, 104.823 168.643 C 105.239 166.528, 101.998 166.513, 100.133 168.621 M 275.500 168 C 275.160 168.550, 275.359 169, 275.941 169 C 276.523 169, 277 168.550, 277 168 C 277 167.450, 276.802 167, 276.559 167 C 276.316 167, 275.840 167.450, 275.500 168 M 408 169.622 C 408 170.951, 408.271 171.020, 409.500 170 C 410.325 169.315, 411 168.585, 411 168.378 C 411 168.170, 410.325 168, 409.500 168 C 408.675 168, 408 168.730, 408 169.622 M 387.566 169.898 C 386.396 170.356, 386.055 170.916, 386.703 171.316 C 387.292 171.680, 388.329 171.308, 389.009 170.489 C 390.379 168.839, 390.326 168.817, 387.566 169.898 M 420.638 170.500 C 421.282 172.178, 422.596 172.462, 423.435 171.105 C 423.740 170.612, 423.279 169.937, 422.412 169.605 C 420.160 168.741, 419.995 168.824, 420.638 170.500 M 426 170 C 426 170.550, 426.477 171, 427.059 171 C 427.641 171, 427.840 170.550, 427.500 170 C 427.160 169.450, 426.684 169, 426.441 169 C 426.198 169, 426 169.450, 426 170 M 94 171.635 C 94 172.509, 94.704 173.010, 95.667 172.823 C 98.105 172.351, 98.362 170.453, 96.012 170.276 C 94.817 170.186, 94 170.738, 94 171.635 M 120.154 171.438 C 120.345 172.355, 120.950 173.082, 121.500 173.053 C 122.984 172.974, 122.712 170.737, 121.154 170.218 C 120.313 169.938, 119.939 170.395, 120.154 171.438 M 135.250 171.031 C 132.794 172.018, 132.553 172.745, 133.949 174.952 C 134.730 176.187, 135.625 176.049, 139.934 174.031 C 142.720 172.726, 145 171.285, 145 170.829 C 145 169.737, 138.116 169.879, 135.250 171.031 M 219.500 171 C 219.840 171.550, 220.316 172, 220.559 172 C 220.802 172, 221 171.550, 221 171 C 221 170.450, 220.523 170, 219.941 170 C 219.359 170, 219.160 170.450, 219.500 171 M 238.250 172.461 C 235.631 175.079, 235.427 176, 237.465 176 C 238.270 176, 239.439 176.952, 240.062 178.117 C 240.968 179.809, 240.868 180.561, 239.561 181.867 C 238.123 183.305, 237.815 183.321, 236.979 182 C 236.457 181.175, 236.017 180.950, 236 181.500 C 235.983 182.050, 235.570 181.869, 235.081 181.097 C 234.420 180.053, 234.192 180.309, 234.189 182.097 C 234.181 187.524, 233.645 191, 232.814 191 C 232.330 191, 230.358 189.425, 228.433 187.500 C 222.734 181.801, 221.943 182.783, 223.065 194.160 C 223.481 198.373, 224.595 203.451, 225.541 205.444 C 227.386 209.333, 233.451 213.540, 238.737 214.597 C 241.479 215.146, 242.025 214.853, 243.472 212.055 C 245.985 207.194, 246.355 200.332, 244.598 191.140 C 243.719 186.541, 243 179.904, 243 176.390 C 243 169.356, 242.100 168.612, 238.250 172.461 M 373 170.941 C 373 171.459, 373.450 172.160, 374 172.500 C 374.550 172.840, 375 172.416, 375 171.559 C 375 170.702, 374.550 170, 374 170 C 373.450 170, 373 170.423, 373 170.941 M 87.369 172.212 C 87.042 172.741, 87.170 173.570, 87.654 174.054 C 88.860 175.260, 93 174.062, 93 172.508 C 93 171.042, 88.247 170.792, 87.369 172.212 M 290.211 172.538 C 289.460 173.389, 289.355 174, 289.961 174 C 290.532 174, 291 174.675, 291 175.500 C 291 177.198, 292.566 177.511, 293.500 176 C 293.840 175.450, 293.667 175, 293.116 175 C 292.566 175, 292.288 174.100, 292.500 173 C 292.951 170.661, 292.030 170.475, 290.211 172.538 M 353 173.525 C 343.708 176.355, 332.541 181.350, 328.336 184.557 C 326.591 185.888, 324.641 188.559, 324.003 190.491 C 322.620 194.680, 314.982 200.856, 304.250 206.461 C 293.699 211.972, 294.544 214, 307.391 214 C 312.170 214, 315.275 213.506, 316.559 212.541 C 318.447 211.122, 318.422 211.015, 315.631 208.573 C 312.109 205.491, 312.648 202.508, 316.591 203.262 C 318.217 203.573, 319.351 203.248, 319.686 202.376 C 320.363 200.612, 321.489 200.632, 323.296 202.439 C 324.548 203.691, 324.886 203.545, 325.900 201.319 C 326.902 199.122, 326.844 198.846, 325.495 199.363 C 323.519 200.122, 322.573 197.838, 323.437 194.395 C 324.035 192.011, 324.398 191.850, 327.795 192.460 C 329.833 192.826, 332.041 193.829, 332.702 194.688 C 333.495 195.719, 334.515 195.986, 335.702 195.472 C 336.691 195.044, 338.136 194.650, 338.914 194.597 C 340.988 194.455, 341.474 192, 339.428 192 C 337.801 192, 337.806 191.872, 339.500 190 C 340.495 188.900, 340.843 188, 340.273 188 C 339.220 188, 340.888 181.779, 342.325 180.341 C 343.258 179.409, 347.257 183.776, 346.536 184.941 C 346.225 185.444, 346.877 186.144, 347.985 186.495 C 349.093 186.847, 350 187.592, 350 188.151 C 350 188.709, 350.521 188.993, 351.158 188.781 C 352.821 188.226, 353.216 184.201, 351.646 183.820 C 350.559 183.557, 350.569 182.908, 351.702 180.160 C 352.862 177.347, 353.317 177.018, 354.585 178.071 C 355.413 178.758, 355.887 179.852, 355.638 180.501 C 355.389 181.150, 355.534 182.246, 355.961 182.936 C 356.546 183.883, 357.751 183.551, 360.868 181.583 C 363.141 180.149, 365.017 178.868, 365.038 178.737 C 366.283 170.911, 366.301 170.994, 363.332 171.121 C 361.774 171.187, 357.125 172.269, 353 173.525 M 218.638 174.500 C 218.955 175.325, 219.391 176, 219.607 176 C 219.823 176, 220 175.325, 220 174.500 C 220 173.675, 219.564 173, 219.031 173 C 218.499 173, 218.322 173.675, 218.638 174.500 M 145.020 175.993 C 142.145 176.966, 138.912 178.643, 137.837 179.719 C 135.895 181.660, 135.901 181.693, 138.581 184.088 C 140.066 185.414, 142.602 187.738, 144.217 189.250 C 147.645 192.460, 150.432 192.936, 149.551 190.161 C 149.230 189.150, 149.714 186.562, 150.627 184.411 C 151.646 182.009, 152.452 181.079, 152.716 182 C 153.506 184.755, 155.329 188, 156.087 188 C 156.500 188, 157.810 186.425, 159 184.500 C 162.188 179.342, 163.292 180.054, 162.661 186.863 C 162.167 192.191, 162.317 192.818, 164.309 193.744 C 167.203 195.090, 172 195.239, 172 193.983 C 172 192.456, 181.702 193.544, 184.261 195.358 L 186.500 196.945 184.229 198.900 C 182.717 200.202, 182.334 201.089, 183.085 201.553 C 183.905 202.059, 183.876 202.459, 182.979 203.013 C 180.358 204.633, 183.124 205.891, 188.028 205.310 C 192.132 204.824, 193 204.996, 193 206.293 C 193 207.158, 192.100 208.151, 191 208.500 C 187.972 209.461, 188.588 210.930, 192.750 212.671 C 196.875 214.396, 207.278 213.992, 211.077 211.959 C 213.042 210.907, 213.066 210.731, 211.490 208.989 C 210.569 207.971, 205.929 204.969, 201.180 202.319 C 195.671 199.244, 190.185 195.115, 186.023 190.909 C 177.573 182.371, 174.843 180.577, 165.900 177.684 C 155.313 174.259, 151.140 173.921, 145.020 175.993 M 83.613 176.816 C 83.211 177.467, 83.246 178.007, 83.691 178.015 C 84.136 178.024, 83.829 178.455, 83.008 178.974 C 82.029 179.593, 81.858 180.246, 82.508 180.875 C 83.966 182.283, 85.813 179.817, 85.011 177.531 C 84.554 176.228, 84.116 176.004, 83.613 176.816 M 375 177 C 374.099 177.582, 373.975 177.975, 374.691 177.985 C 375.346 177.993, 376.160 177.550, 376.500 177 C 377.267 175.758, 376.921 175.758, 375 177 M 388.229 177.187 C 388.727 178.682, 391 179.505, 391 178.190 C 391 177.653, 390.287 176.941, 389.416 176.606 C 388.443 176.233, 387.985 176.456, 388.229 177.187 M 405.162 177.536 C 403.446 178.443, 403.164 178.983, 404.103 179.563 C 404.850 180.025, 405.551 179.847, 405.788 179.135 C 406.102 178.194, 406.519 178.186, 407.621 179.101 C 409.537 180.690, 410.770 179.311, 408.940 177.626 C 407.781 176.557, 407.045 176.540, 405.162 177.536 M 422 178.531 C 422 179.339, 422.675 180, 423.500 180 C 424.325 180, 425 179.598, 425 179.107 C 425 178.616, 424.325 177.955, 423.500 177.638 C 422.586 177.288, 422 177.637, 422 178.531 M 129.500 179 C 129.840 179.550, 130.541 180, 131.059 180 C 131.577 180, 132 179.550, 132 179 C 132 178.450, 131.298 178, 130.441 178 C 129.584 178, 129.160 178.450, 129.500 179 M 79 179.878 C 79 180.360, 79.749 181.373, 80.664 182.128 C 82.172 183.372, 82.216 183.290, 81.129 181.250 C 79.889 178.923, 79 178.350, 79 179.878 M 127 180 C 127 180.550, 127.477 181, 128.059 181 C 128.641 181, 128.840 180.550, 128.500 180 C 128.160 179.450, 127.684 179, 127.441 179 C 127.198 179, 127 179.450, 127 180 M 373.198 181.054 C 372.258 182.560, 371.326 182.927, 369.708 182.430 C 368.494 182.057, 367.778 182.048, 368.118 182.411 C 368.459 182.773, 367.446 184.452, 365.868 186.141 C 362.326 189.933, 362.285 191.161, 365.648 192.722 C 368.473 194.034, 370 193.647, 370 191.620 C 370 190.926, 372.096 188.171, 374.657 185.497 C 378.832 181.140, 379.117 180.559, 377.407 179.889 C 374.634 178.801, 374.599 178.810, 373.198 181.054 M 96.543 180.931 C 95.803 182.128, 97.684 183.313, 99.016 182.490 C 100.135 181.799, 99.400 180, 98 180 C 97.515 180, 96.859 180.419, 96.543 180.931 M 119.188 181.063 C 119.428 181.784, 120.216 182.572, 120.938 182.813 C 121.688 183.063, 122.063 182.688, 121.813 181.938 C 121.572 181.216, 120.784 180.428, 120.063 180.188 C 119.313 179.938, 118.938 180.313, 119.188 181.063 M 122.619 182.807 C 122.345 183.251, 122.249 184.489, 122.407 185.557 C 122.564 186.626, 122.063 187.961, 121.294 188.525 C 120.128 189.379, 120.278 190.111, 122.198 192.934 C 123.894 195.427, 125.948 196.788, 130 198.105 C 133.115 199.118, 135.645 199.483, 135.833 198.947 C 136.017 198.426, 136.804 198, 137.583 198 C 138.909 198, 139.333 196.999, 138.750 195.250 C 138.613 194.838, 137.825 194.497, 137 194.494 C 136.170 194.490, 135.500 193.597, 135.500 192.494 C 135.500 189.529, 134.319 188.229, 130.955 187.490 C 129.292 187.125, 127.221 185.740, 126.351 184.413 C 124.723 181.928, 123.490 181.397, 122.619 182.807 M 412 183 C 412 183.550, 412.477 184, 413.059 184 C 413.641 184, 413.840 183.550, 413.500 183 C 413.160 182.450, 412.684 182, 412.441 182 C 412.198 182, 412 182.450, 412 183 M 109 186.167 C 109 186.625, 109.675 187, 110.500 187 C 111.325 187, 112 186.625, 112 186.167 C 112 185.708, 111.325 185.333, 110.500 185.333 C 109.675 185.333, 109 185.708, 109 186.167 M 396 190 C 396 190.550, 396.450 191, 397 191 C 397.550 191, 398 190.550, 398 190 C 398 189.450, 397.550 189, 397 189 C 396.450 189, 396 189.450, 396 190 M 351.200 193.200 C 349.877 194.523, 349.557 198, 350.759 198 C 351.177 198, 352.114 197.047, 352.842 195.882 C 354.359 193.452, 353.064 191.336, 351.200 193.200 M 360.144 196.785 C 359.515 196.995, 359 197.517, 359 197.945 C 359 198.926, 363.853 198.046, 364.536 196.941 C 365.035 196.134, 362.381 196.040, 360.144 196.785 M 162.670 198.417 C 162.022 200.105, 164.926 201.474, 166.280 200.120 C 166.800 199.600, 166.923 198.685, 166.554 198.087 C 165.601 196.545, 163.314 196.740, 162.670 198.417 M 337.500 201 C 337.160 201.550, 337.332 202, 337.882 202 C 338.432 202, 339.160 201.550, 339.500 201 C 339.840 200.450, 339.668 200, 339.118 200 C 338.568 200, 337.840 200.450, 337.500 201 M 130 202 C 130 202.550, 130.702 203, 131.559 203 C 132.416 203, 132.840 202.550, 132.500 202 C 132.160 201.450, 131.459 201, 130.941 201 C 130.423 201, 130 201.450, 130 202 M 141.500 202 C 141.840 202.550, 141.551 203, 140.859 203 C 139.929 203, 139.893 203.293, 140.722 204.122 C 141.339 204.739, 141.593 205.976, 141.287 206.872 C 140.776 208.369, 140.843 208.368, 142.115 206.865 C 142.877 205.966, 144.175 204.948, 145 204.604 C 145.825 204.260, 145.469 204.171, 144.209 204.406 C 142.327 204.758, 142.026 204.492, 142.526 202.917 C 142.880 201.802, 142.663 201, 142.008 201 C 141.389 201, 141.160 201.450, 141.500 202 M 169.232 203 C 168.545 204.100, 168.324 205.031, 168.742 205.069 C 169.159 205.107, 170.738 205.301, 172.250 205.501 C 175.562 205.938, 175.698 205.340, 172.847 202.867 C 170.258 200.622, 170.728 200.605, 169.232 203 M 343.459 202.067 C 343.096 202.653, 343.070 203.403, 343.400 203.733 C 343.730 204.063, 344 203.760, 344 203.060 C 344 202.351, 344.651 202.036, 345.468 202.349 C 346.275 202.659, 347.202 202.482, 347.527 201.956 C 347.852 201.430, 347.218 201, 346.118 201 C 345.018 201, 343.821 201.480, 343.459 202.067 M 354.813 201.683 C 355.534 201.972, 356.397 201.936, 356.729 201.604 C 357.061 201.272, 356.471 201.036, 355.417 201.079 C 354.252 201.127, 354.015 201.364, 354.813 201.683 M 161.192 207.075 C 161.389 207.666, 161.978 208.150, 162.500 208.150 C 163.022 208.150, 163.611 207.666, 163.808 207.075 C 164.005 206.484, 163.417 206, 162.500 206 C 161.583 206, 160.995 206.484, 161.192 207.075 M 332.750 212.392 C 331.788 213.123, 331 214.063, 331 214.483 C 331 214.902, 331.655 214.701, 332.456 214.036 C 333.257 213.372, 334.307 213.072, 334.790 213.370 C 335.272 213.668, 335.667 213.257, 335.667 212.456 C 335.667 210.678, 335.027 210.664, 332.750 212.392 M 353.500 212 C 353.160 212.550, 353.359 213, 353.941 213 C 354.523 213, 355 212.550, 355 212 C 355 211.450, 354.802 211, 354.559 211 C 354.316 211, 353.840 211.450, 353.500 212 M 132.610 213.427 C 133.320 215.276, 136.363 215.589, 135.750 213.750 C 135.522 213.063, 134.586 212.355, 133.671 212.177 C 132.511 211.952, 132.190 212.331, 132.610 213.427 M 365.496 213.007 C 365.153 213.561, 365.596 214.292, 366.480 214.631 C 368.394 215.365, 369.461 214.556, 368.541 213.067 C 367.711 211.723, 366.306 211.696, 365.496 213.007 M 347.543 213.931 C 347.226 214.443, 347.425 215.144, 347.984 215.490 C 348.543 215.835, 349 215.416, 349 214.559 C 349 212.802, 348.400 212.544, 347.543 213.931 M 319.232 216 C 318.545 217.100, 318.244 218, 318.563 218 C 319.312 218, 322 215.318, 322 214.571 C 322 213.299, 320.404 214.123, 319.232 216 M 172.998 216.624 L 170.500 218.083 173 217.417 C 175.785 216.676, 176.536 216.203, 175.915 215.582 C 175.685 215.352, 174.373 215.821, 172.998 216.624 M 335 216 C 335 216.550, 335.423 217, 335.941 217 C 336.459 217, 337.160 216.550, 337.500 216 C 337.840 215.450, 337.416 215, 336.559 215 C 335.702 215, 335 215.450, 335 216 M 145 217 C 145 217.550, 145.477 218, 146.059 218 C 146.641 218, 146.840 217.550, 146.500 217 C 146.160 216.450, 145.684 216, 145.441 216 C 145.198 216, 145 216.450, 145 217 M 161 217.893 C 161 218.997, 163.595 220.072, 164.375 219.292 C 164.689 218.978, 164.706 218.334, 164.414 217.861 C 163.712 216.725, 161 216.750, 161 217.893 M 187.606 218.416 C 187.941 219.287, 188.653 220, 189.190 220 C 190.505 220, 189.682 217.727, 188.187 217.229 C 187.456 216.985, 187.233 217.443, 187.606 218.416 M 371 217.941 C 371 218.459, 371.450 219.160, 372 219.500 C 372.550 219.840, 373 219.416, 373 218.559 C 373 217.702, 372.550 217, 372 217 C 371.450 217, 371 217.423, 371 217.941 M 143 219.559 C 143 220.416, 143.457 220.835, 144.016 220.490 C 144.575 220.144, 144.774 219.443, 144.457 218.931 C 143.600 217.544, 143 217.802, 143 219.559 M 159.079 219.583 C 159.127 220.748, 159.364 220.985, 159.683 220.188 C 159.972 219.466, 159.936 218.603, 159.604 218.271 C 159.272 217.939, 159.036 218.529, 159.079 219.583 M 361.564 222.293 C 361.940 223.279, 362.499 223.834, 362.807 223.526 C 363.115 223.219, 362.808 222.412, 362.124 221.733 C 361.136 220.753, 361.022 220.868, 361.564 222.293 M 163.500 225 C 163.160 225.550, 163.359 226, 163.941 226 C 164.523 226, 165 225.550, 165 225 C 165 224.450, 164.802 224, 164.559 224 C 164.316 224, 163.840 224.450, 163.500 225 M 351.409 226.376 C 350.562 228.584, 351.689 229.711, 353.217 228.183 C 354.119 227.281, 354.122 226.722, 353.233 225.833 C 352.343 224.943, 351.909 225.072, 351.409 226.376 M 149 227.882 C 149 228.432, 149.450 229.160, 150 229.500 C 150.550 229.840, 151 229.668, 151 229.118 C 151 228.568, 150.550 227.840, 150 227.500 C 149.450 227.160, 149 227.332, 149 227.882 M 178.184 229.496 C 177.556 230.873, 177.431 232, 177.905 232 C 178.735 232, 180.231 227.898, 179.623 227.289 C 179.459 227.126, 178.811 228.118, 178.184 229.496 M 325.565 229.895 C 325.260 230.388, 325.684 231.048, 326.506 231.364 C 327.413 231.712, 328 231.361, 328 230.469 C 328 228.851, 326.437 228.483, 325.565 229.895 M 382.937 360.866 C 379.397 362.993, 375.512 365.040, 374.304 365.417 C 373.091 365.794, 368.242 365.182, 363.475 364.050 C 352.608 361.469, 349.365 361.480, 345.047 364.112 C 340.628 366.807, 326.062 369.254, 319.500 368.405 C 314.511 367.760, 314.504 367.763, 316.342 369.810 C 317.355 370.938, 321.200 372.777, 324.886 373.897 C 332.733 376.280, 335.288 378.684, 337.164 385.446 C 338.514 390.313, 338.630 390.419, 344.380 392.126 C 351.157 394.138, 354.290 396.733, 357.510 403 C 360.317 408.465, 364.600 412.526, 372.347 417.070 C 379.111 421.038, 381.344 423.765, 382.943 430.009 C 385.816 441.226, 387.273 442.119, 393.583 436.533 L 397.500 433.065 383.167 419.364 C 374.744 411.313, 366.853 402.743, 364.030 398.582 C 361.388 394.687, 357.637 390.108, 355.694 388.407 C 353.402 386.400, 351.745 383.766, 350.976 380.907 C 349.509 375.455, 347.398 371.191, 344.709 368.250 C 343.577 367.012, 343.067 366.003, 343.576 366.006 C 346.623 366.024, 351.953 368.364, 354.734 370.904 C 356.902 372.884, 359.850 374.233, 363.729 375.020 C 371.652 376.627, 376.314 378.856, 384.481 384.939 C 388.320 387.799, 395.052 392.007, 399.440 394.290 C 404.601 396.975, 409.437 400.509, 413.132 404.297 C 418.111 409.401, 419.105 410.014, 420.871 409.069 C 422.917 407.974, 426 404.201, 426 402.792 C 426 401.256, 418.265 396.971, 411.084 394.528 C 400.668 390.986, 396.828 388.432, 385.653 377.617 C 376.557 368.813, 375.988 368.041, 378.192 367.488 C 381.454 366.669, 384.762 368.093, 392.033 373.445 C 396.374 376.641, 400.956 378.853, 407.412 380.872 C 419.015 384.499, 422.172 386.145, 428.034 391.629 L 432.754 396.044 435.929 392.428 C 437.675 390.439, 438.934 388.292, 438.726 387.656 C 438.518 387.020, 432.982 385.149, 426.424 383.499 C 412.963 380.111, 405.473 376.365, 395.428 368 L 388.823 362.500 392.166 362.204 C 394.133 362.030, 399.421 363.325, 405.013 365.349 C 410.240 367.241, 417.663 369.122, 421.508 369.529 C 425.354 369.935, 430.975 371.380, 434 372.738 C 437.025 374.097, 440.709 375.193, 442.187 375.173 C 445.174 375.133, 449 373.395, 449 372.077 C 449 370.930, 433.088 367.264, 425.033 366.555 C 420.874 366.188, 416.234 364.894, 412.033 362.927 C 406.395 360.288, 394.517 357, 390.621 357 C 389.935 357, 386.477 358.740, 382.937 360.866 M 107.872 362.484 C 94.486 368.669, 84.817 371.679, 75.757 372.483 C 67.565 373.209, 65.792 374.220, 68.304 376.732 C 70.947 379.376, 76.999 378.556, 86.565 374.259 C 100.966 367.789, 113.060 364, 119.310 364 C 125.424 364, 126.871 364.946, 124.226 367.212 C 120.267 370.605, 84.487 388.109, 80.353 388.675 C 75.152 389.388, 74.872 390.735, 78.987 395.234 L 81.975 398.500 85.480 394.359 C 87.407 392.082, 91.228 388.779, 93.969 387.020 C 99.156 383.692, 122.246 373.002, 128.125 371.207 C 132.605 369.840, 140 369.013, 140 369.880 C 140 370.786, 123.412 382.595, 114.500 388.033 C 110.650 390.382, 103.646 394.227, 98.936 396.576 C 94.225 398.926, 89.782 401.557, 89.063 402.424 C 87.632 404.148, 87.941 404.781, 92.882 410.244 L 95.363 412.988 98.215 407.773 C 103.258 398.552, 109.745 393.328, 120.842 389.554 C 129.281 386.684, 132.113 385.203, 138.851 380.140 C 142.959 377.053, 145.469 375.960, 149.652 375.438 C 154.410 374.843, 155.497 374.265, 158.218 370.878 C 161.465 366.838, 164.501 365.650, 163.660 368.750 C 160.538 380.269, 158.729 384.906, 156.566 386.938 C 155.191 388.230, 153.314 391.585, 152.396 394.394 C 151.477 397.202, 149.896 401.152, 148.882 403.172 C 145.861 409.191, 136.040 418.995, 127.500 424.517 C 115.587 432.221, 115.514 432.381, 121.487 437.637 C 124.214 440.037, 126.914 442, 127.488 442 C 128.061 442, 129.348 439.637, 130.347 436.750 C 132.269 431.194, 137.171 423.422, 146.697 410.827 C 149.889 406.607, 153.687 401.148, 155.137 398.696 C 157.473 394.749, 158.533 393.986, 164.387 392.037 L 171 389.837 171 383.529 C 171 374.797, 172.519 373.114, 181.398 372.013 C 185.176 371.544, 188.931 370.497, 189.742 369.686 C 191.041 368.388, 190.758 368.143, 187.358 367.632 C 185.236 367.313, 177.744 366.112, 170.710 364.964 C 159.930 363.204, 156.419 363.023, 148.373 363.813 C 137.560 364.874, 134.571 364.423, 127.508 360.660 C 124.762 359.197, 121.387 358.008, 120.008 358.018 C 118.629 358.027, 113.168 360.037, 107.872 362.484 M 241.504 361.750 L 244.266 366 241.524 370.143 C 237.398 376.378, 230.559 382.585, 223.912 386.128 C 217.087 389.765, 210.992 395.969, 211.017 399.253 C 211.026 400.489, 212.369 403.750, 214 406.500 C 217.460 412.333, 217.719 415.668, 215.110 420.790 C 211.880 427.133, 209.881 435.122, 209.051 445.004 C 208.395 452.821, 207.520 456.229, 204.126 464.203 C 201.857 469.535, 200 474.590, 200 475.436 C 200 477.097, 204.971 479.529, 210.480 480.562 C 214.589 481.333, 214.722 480.969, 215.276 467.500 C 215.579 460.112, 216.137 457.542, 218.390 453.151 C 219.899 450.209, 221.751 444.584, 222.505 440.651 C 223.259 436.718, 225.078 430.876, 226.548 427.669 L 229.221 421.838 225.610 416.596 C 223.625 413.713, 222.002 410.262, 222.004 408.927 C 222.010 404.737, 225.449 400.573, 231.614 397.286 C 234.864 395.554, 238.557 393.036, 239.821 391.691 L 242.119 389.244 240.063 385.872 C 237.143 381.082, 237.466 378.911, 242 372.877 C 244.200 369.949, 246 366.842, 246 365.973 C 246 365.104, 244.367 362.842, 242.371 360.946 L 238.743 357.500 241.504 361.750 M 253.342 364.178 C 256.632 369.968, 256.653 371.575, 253.500 376.215 C 252.125 378.238, 251 380.784, 251 381.871 C 251 383.061, 253.796 386.334, 258.019 390.087 C 272.528 402.982, 272.487 407.162, 257.744 418.263 L 254.075 421.026 254.621 432.763 C 254.921 439.218, 255.804 446.493, 256.583 448.928 C 258.419 454.665, 258.388 463.403, 256.511 469.591 C 254.491 476.251, 254.624 479.624, 257 482 C 259.736 484.736, 265.886 484.664, 269.458 481.855 C 272.504 479.458, 272.524 478.142, 269.668 467.500 C 268.486 463.096, 267.984 455.915, 267.779 440.500 L 267.500 419.500 271.250 413.480 C 273.313 410.169, 275.014 406.344, 275.030 404.980 C 275.058 402.740, 275.164 402.678, 276.127 404.334 C 276.714 405.343, 276.953 407.818, 276.659 409.834 C 274.943 421.600, 274.843 424.740, 275.956 431.789 C 276.628 436.042, 278.705 442.920, 280.587 447.126 C 284.554 455.990, 284.962 461.813, 282.333 472.071 C 279.894 481.591, 280.444 482.380, 289.091 481.761 C 292.970 481.484, 296.580 480.820, 297.113 480.287 C 297.740 479.660, 297.161 476.518, 295.478 471.408 C 293.024 463.961, 290.112 444.874, 288.454 425.366 C 287.911 418.984, 288.126 416.135, 289.455 412.136 C 290.386 409.333, 290.884 406.210, 290.562 405.196 C 289.472 401.761, 284.534 398.261, 274.844 394.055 C 262.017 388.489, 261.551 387.916, 262.381 378.756 L 263.040 371.477 256.862 365.489 L 250.685 359.500 253.342 364.178 M 266.547 367.047 C 270.089 370.674, 270.552 371.736, 271 377.264 C 271.561 384.185, 270.665 383.359, 284.095 389.343 C 296.059 394.673, 299.703 401.233, 296.988 412.550 C 295.857 417.264, 295.919 418.925, 297.473 425.522 C 298.452 429.682, 300.729 436.164, 302.532 439.926 C 307.341 449.961, 308.469 456.557, 306.996 466.025 C 306.334 470.284, 306.107 474.762, 306.493 475.977 C 307.105 477.908, 307.652 478.100, 310.829 477.504 C 315.674 476.595, 318 475.260, 318 473.385 C 318 472.536, 316.913 469.064, 315.584 465.671 C 314.255 462.277, 311.256 453.200, 308.918 445.500 C 304.570 431.180, 304.320 429.037, 305.122 412.895 L 305.500 405.291 308.262 409.043 C 310.343 411.871, 311.260 414.661, 311.982 420.360 C 313.112 429.273, 314.732 433.505, 319.501 440.001 C 324.408 446.686, 325.997 451.901, 326.015 461.376 C 326.035 471.928, 326.551 472.742, 332.171 471.095 C 337.956 469.401, 341 467.344, 341 465.132 C 341 464.130, 339.131 460.428, 336.846 456.905 C 329.786 446.018, 325.011 434.990, 323.425 425.908 C 322.071 418.151, 321.631 417.194, 317.481 412.981 C 313.034 408.466, 313 408.379, 313 401.438 C 313 390.520, 310.176 387.973, 295.179 385.366 C 283.445 383.327, 278.718 381.093, 275.295 375.970 C 271.465 370.240, 264.976 363, 263.670 363 C 263.078 363, 264.373 364.821, 266.547 367.047 M 287.074 367.877 C 280.747 369.645, 285.046 374.467, 294.734 376.470 C 303.966 378.379, 313.660 382.833, 317.500 386.929 C 320.281 389.897, 320.525 390.764, 320.837 398.815 C 321.171 407.395, 321.222 407.549, 325.118 411.569 C 327.303 413.824, 329.540 417.391, 330.134 419.569 C 332.147 426.947, 335.955 433.629, 339.996 436.876 C 345.217 441.073, 347.581 445.925, 348.451 454.239 C 348.839 457.946, 349.555 461.225, 350.041 461.525 C 351.107 462.184, 361 457.317, 361 456.134 C 361 455.676, 359.621 453.321, 357.935 450.900 C 347.768 436.307, 343.853 428.742, 339.993 416.238 C 338.545 411.548, 336.787 408.346, 334.207 405.702 L 330.500 401.904 330.754 393.785 C 331.088 383.088, 329.680 381.538, 317.830 379.554 C 315.110 379.098, 312.622 377.396, 308.209 372.970 L 302.258 367 295.879 367.100 C 292.371 367.155, 288.408 367.504, 287.074 367.877 M 205.942 368.948 C 202.241 370.071, 199.014 371.913, 194.724 375.350 C 191.716 377.761, 189.739 378.464, 184.998 378.806 C 181.726 379.043, 178.659 379.746, 178.183 380.368 C 177.692 381.010, 177.759 385.070, 178.338 389.746 L 179.359 397.992 175.764 405.246 C 173.788 409.236, 170.990 417, 169.547 422.500 C 166.316 434.821, 164.059 439.600, 158.574 445.731 C 150.072 455.235, 150.028 457.152, 158.227 461.030 C 165.822 464.622, 166.419 464.217, 167.856 454.500 C 168.985 446.869, 176.930 429.716, 185.643 416.097 L 190.239 408.914 188.619 404.673 C 186.509 399.149, 186.573 395.265, 188.842 391.035 C 191.235 386.572, 195.260 384.579, 208.347 381.376 C 219.925 378.543, 225.314 375.718, 225.819 372.217 C 226.054 370.592, 225.438 369.737, 223.504 369.002 C 220.458 367.843, 209.691 367.811, 205.942 368.948 M 356 380.817 C 356 382.108, 357.515 383.698, 360.302 385.331 C 362.668 386.718, 368.078 391.259, 372.323 395.422 C 376.834 399.846, 382.465 404.216, 385.872 405.935 C 396.402 411.251, 400.093 415.467, 401.470 423.750 C 401.858 426.087, 402.720 428, 403.385 428 C 404.967 428, 412 420.783, 412 419.160 C 412 417.189, 407.290 413.309, 398.319 407.891 C 392.240 404.219, 387.647 400.293, 380.913 393.013 C 371.553 382.893, 368.508 380.907, 360.250 379.532 C 356.435 378.897, 356 379.028, 356 380.817 M 150 380.705 C 149.175 381.006, 145.904 383.887, 142.732 387.108 C 135.195 394.760, 128.132 399.907, 116.767 406.033 C 106.975 411.311, 103 414.805, 103 418.137 C 103 419.252, 104.629 422.152, 106.620 424.582 C 110.139 428.876, 112 430.055, 112 427.989 C 112 425.445, 116.584 417.651, 120.218 414.017 C 122.425 411.811, 127.762 407.530, 132.080 404.505 C 137.156 400.948, 141.681 396.691, 144.884 392.459 C 147.609 388.860, 151 385.001, 152.419 383.885 C 153.839 382.768, 155 381.438, 155 380.927 C 155 379.930, 152.437 379.816, 150 380.705 M 200.502 390.794 C 193.391 393.221, 192.311 395.859, 195.173 403.813 L 197.346 409.853 193.641 417.957 C 191.037 423.653, 189.635 428.506, 188.924 434.281 C 187.875 442.796, 184.607 451.242, 178.939 460.088 C 174.794 466.557, 175.047 468.665, 180.250 471.027 C 185.331 473.333, 190.562 473.583, 191.340 471.557 C 191.644 470.764, 191.642 467.051, 191.336 463.307 C 190.898 457.965, 191.210 455.316, 192.783 451 C 200.241 430.543, 202.004 426.698, 206.334 421.438 C 211.414 415.268, 211.424 414.461, 206.510 407.230 C 202.737 401.677, 203.288 396.752, 208.299 391.250 L 210.349 389 207.924 389.044 C 206.591 389.068, 203.251 389.855, 200.502 390.794 M 167.997 396.343 C 163.604 398.451, 163.408 398.751, 159.428 409.500 C 153.797 424.709, 152.723 426.513, 144.414 434.718 C 134.292 444.714, 133.892 445.632, 138.123 449.160 C 139.980 450.709, 142.119 451.869, 142.876 451.738 C 143.633 451.607, 145.238 448.569, 146.443 444.987 C 147.649 441.406, 150.291 435.885, 152.316 432.720 C 154.341 429.555, 158.012 422.954, 160.474 418.052 C 162.936 413.150, 166.987 406.639, 169.475 403.583 C 176.127 395.417, 175.574 392.708, 167.997 396.343 M 246.703 395.773 C 245.842 396.723, 242.519 399.047, 239.319 400.937 C 228.650 407.238, 228.321 407.968, 233.018 414.900 C 236.404 419.897, 236.754 423.631, 234.443 430.124 C 233.278 433.397, 233.042 436.517, 233.504 442.500 C 234.210 451.625, 232.022 462.077, 227.565 470.871 C 226.154 473.655, 225 477.263, 225 478.887 C 225 482.111, 225.343 482.260, 235.663 483.529 C 244.926 484.668, 246.857 481.439, 243.511 470.409 C 241.817 464.824, 241.565 455.361, 242.923 448.299 C 243.431 445.660, 244.379 439.225, 245.030 434 C 246.911 418.900, 247.393 417.673, 253.483 412.470 C 260.517 406.461, 261.062 404.691, 257.129 400.633 C 255.441 398.892, 252.757 396.697, 251.164 395.756 C 248.429 394.140, 248.182 394.141, 246.703 395.773 M 336.346 397.542 C 335.892 398.723, 336.770 400.197, 339.223 402.371 C 341.164 404.092, 343.789 407.075, 345.056 409 C 346.323 410.925, 350.642 416.581, 354.655 421.568 C 362.842 431.745, 364.677 435.398, 365.616 443.392 C 366.016 446.795, 366.963 449.561, 368.070 450.563 C 369.747 452.081, 370.224 452.003, 374.936 449.438 C 377.721 447.922, 380 446.269, 380 445.765 C 380 444.480, 372.534 435.044, 363.569 425 C 358.540 419.366, 354.384 413.380, 351.241 407.245 C 348.634 402.155, 345.825 397.801, 345 397.570 C 339.047 395.901, 336.978 395.894, 336.346 397.542" stroke="none" fill="black" fill-rule="evenodd"/>
</svg>